<?xml version="1.0" encoding="utf-8"?>
<!-- Generator: Adobe Illustrator 21.0.0, SVG Export Plug-In . SVG Version: 6.00 Build 0)  -->
<svg version="1.1" id="Слой_1" xmlns="http://www.w3.org/2000/svg" xmlns:xlink="http://www.w3.org/1999/xlink" x="0px" y="0px"
	 viewBox="0 0 512 512" style="enable-background:new 0 0 512 512;" xml:space="preserve" fill="#ffffff">
<path d="M407.3,341.3H194c-18.9,0-35.8-12.7-41-31L81.9,61.2c-3.1-10.9-13.2-18.6-24.6-18.6H8.5c-4.7,0-8.5-3.8-8.5-8.5
	c0-4.7,3.8-8.5,8.5-8.5h48.8c18.9,0,35.8,12.7,41,31l71.1,249.1c3.1,11,13.2,18.6,24.6,18.6h213.3c10.6,0,20-6.4,23.9-16.3l62-159.5
	c3.1-8,2.1-16.6-2.7-23.7c-4.8-7.1-12.5-11.2-21.1-11.2H221.8c-4.7,0-8.5-3.8-8.5-8.5s3.8-8.5,8.5-8.5h247.5
	c14.1,0,27.2,6.9,35.2,18.6c7.9,11.6,9.7,26.4,4.5,39.5l-62,159.5C440.7,330.6,425.1,341.3,407.3,341.3z M228.8,435.2
	c0-28.2-23-51.2-51.2-51.2s-51.2,23-51.2,51.2c0,28.2,23,51.2,51.2,51.2S228.8,463.4,228.8,435.2z M211.7,435.2
	c0,18.8-15.3,34.1-34.1,34.1s-34.1-15.3-34.1-34.1c0-18.8,15.3-34.1,34.1-34.1S211.7,416.4,211.7,435.2z M474.4,435.2
	c0-28.2-23-51.2-51.2-51.2c-28.2,0-51.2,23-51.2,51.2c0,28.2,23,51.2,51.2,51.2C451.5,486.4,474.4,463.4,474.4,435.2z M457.4,435.2
	c0,18.8-15.3,34.1-34.1,34.1c-18.8,0-34.1-15.3-34.1-34.1c0-18.8,15.3-34.1,34.1-34.1C442,401.1,457.4,416.4,457.4,435.2z"/>
</svg>
