<?xml version="1.0" encoding="utf-8"?>
<!-- Generator: Adobe Illustrator 21.0.0, SVG Export Plug-In . SVG Version: 6.00 Build 0)  -->
<svg  version="1.1" id="Capa_1" xmlns="http://www.w3.org/2000/svg" xmlns:xlink="http://www.w3.org/1999/xlink" x="0px" y="0px"
	 viewBox="0 0 512 512" style="enable-background:new 0 0 512 512;" xml:space="preserve" fill="#8111AE"  >
<path d="M256,512c-60,0-118.5-21.4-164.7-60.3l-10-8.4l10-8.5c3.9-3.3,8.3-6.8,14-9.7l72.5-39.8c6-3.3,9.7-9.5,9.7-16.4v-26.1
	c-6-8-21-29.9-28.4-58.5c-7.8-6.7-12.4-16.5-12.4-27.2v-32.9c0-8.4,2.9-16.4,8.2-22.5v-42.8l0,0c-0.1,0-3.8-30.3,17.8-54.9
	C190,84.1,218.1,74,256,74s66,10.1,83.4,29.9c21.6,24.7,17.9,55.1,17.7,56.4l0.1,41.4c5.2,6.3,8.2,14.2,8.2,22.4v32.9
	c0,13.5-7.7,25.5-19.5,31.7c-5.8,16.8-13.9,32.7-24.1,47.1c-1.9,2.7-3.7,5-5.3,7.1v26.7c0,7.1,3.9,13.5,10.3,16.7l78.3,39.1
	c5,2.3,10.1,5.7,15,9.9l10,8.5l-10,8.4C374.2,490.9,316,512,256,512z M117.2,443.8c40.5,30.1,88.1,45.9,138.7,45.9
	c49.7,0,98-15.8,137.6-44.9l-77-38.5c-13.9-7.1-22.5-21.1-22.5-36.6v-35l2.8-3.2c2-2.2,4.2-5.2,6.6-8.6
	c9.9-13.9,17.5-29.3,22.7-45.8l1.7-5.5l5.5-1.8c5.8-1.9,9.7-7,9.7-12.8v-32.9c0-3.6-1.7-7.2-4.4-9.6l-3.7-3.3v-52.3
	c0.1-1.6,2.6-23.5-12.5-40.5c-13-14.7-35.3-22.1-66.4-22.1s-53.4,7.4-66.4,22.1c-15.1,17-12.6,38.9-12.6,39.1l0.1,53.9l-4,3.3
	c-2.7,2.3-4.2,5.7-4.2,9.4v32.9c0,4.7,2.2,8.9,6,11.3l3.8,2.4l1,4.5c7.4,32.4,27.1,56.3,27.3,56.5l2.6,3.1l0,34
	c0,15-8.2,28.8-21.3,35.9L117.2,443.8z M491.7,355.6c12.8-30.1,19.7-62.2,20.2-95.3C514.2,119.3,401.3,2.6,260.2,0
	C119.5-1.8,2.6,110.7,0,251.8C-0.5,288,6.3,323,20.2,355.6c2.4,5.7,9,8.3,14.6,5.9c5.7-2.4,8.3-9,5.9-14.6
	c-12.7-29.7-18.9-61.6-18.4-94.7C24.6,124.6,129.1,22.3,256.1,22.3c1.3,0,2.5,0,3.8,0c128.8,2.3,231.9,108.9,229.8,237.6
	c-0.5,30.3-6.7,59.5-18.4,87c-2.4,5.7,0.2,12.2,5.9,14.6c1.4,0.6,2.9,0.9,4.4,0.9C485.8,362.4,489.9,359.8,491.7,355.6z"/>
</svg>
