<?xml version="1.0" encoding="utf-8"?>
<!-- Generator: Adobe Illustrator 21.0.0, SVG Export Plug-In . SVG Version: 6.00 Build 0)  -->
<svg version="1.1" id="Слой_1" xmlns="http://www.w3.org/2000/svg" xmlns:xlink="http://www.w3.org/1999/xlink" x="0px" y="0px"
	 viewBox="0 0 512 512" style="enable-background:new 0 0 512 512;" xml:space="preserve" fill="#8111AE" >
<path d="M405.6,343.6H195.4c-20.4,0-38.5-13.7-44.1-33.4l-70-246.4c-2.6-9.2-11.1-15.6-20.6-15.6h-48C6,48.3,0.5,42.8,0.5,36.1
	S6,23.9,12.7,23.9h48c20.4,0,38.5,13.7,44,33.3l70.1,246.4c2.6,9.2,11.1,15.6,20.6,15.6h210.2c8.9,0,16.7-5.4,20-13.7l61.1-157.8
	c2.6-6.8,1.8-14.1-2.3-20c-4-5.9-10.5-9.3-17.6-9.3H222.8c-6.7,0-12.2-5.5-12.2-12.2S216.1,94,222.8,94h243.9
	c15.1,0,29.2,7.5,37.8,19.9c8.6,12.5,10.4,28.5,4.9,42.6l-61.1,157.8C441.4,332.1,424.6,343.6,405.6,343.6z M233.7,432.7
	c0-30-24.4-54.4-54.4-54.4c-30,0-54.4,24.4-54.4,54.4c0,30,24.4,54.4,54.4,54.4C209.2,487.1,233.7,462.7,233.7,432.7z M209.3,432.7
	c0,16.5-13.5,30-30,30s-30-13.5-30-30c0-16.5,13.5-30,30-30S209.3,416.2,209.3,432.7z M475.7,432.7c0-30-24.4-54.4-54.4-54.4
	c-30,0-54.4,24.4-54.4,54.4c0,30,24.4,54.4,54.4,54.4C451.3,487.1,475.7,462.7,475.7,432.7z M451.3,432.7c0,16.5-13.5,30-30,30
	c-16.5,0-30-13.5-30-30c0-16.5,13.5-30,30-30C437.8,402.7,451.3,416.2,451.3,432.7z"/>
</svg>
