<?xml version="1.0" encoding="utf-8"?>
<!-- Generator: Adobe Illustrator 21.0.0, SVG Export Plug-In . SVG Version: 6.00 Build 0)  -->
<svg version="1.1" id="Capa_1" xmlns="http://www.w3.org/2000/svg" xmlns:xlink="http://www.w3.org/1999/xlink" x="0px" y="0px"
	 viewBox="0 0 512 512" style="enable-background:new 0 0 512 512;" xml:space="preserve">
<path d="M509.7,408.2l-2.6-7.8c-6-17.9-25.8-36.6-44-41.6l-67.3-18.4c-18.2-4.9-44.2,1.7-57.6,15.1l-24.3,24.3
	c-88.4-23.9-157.8-93.3-181.7-181.8l24.3-24.3c13.3-13.3,20-39.3,15.1-57.6l-18.3-67.3c-4.9-18.2-23.7-38-41.6-44L104,2.3
	c-17.9-6-43.6,0.1-56.9,13.4L10.7,52.2C4.2,58.7,0,77.2,0,77.2c-1.2,115.7,44.1,227.1,125.9,308.9C207.5,467.7,318.4,513,433.7,512
	c0.6,0,19.7-4.1,26.2-10.6l36.4-36.4C509.6,451.7,515.6,426.1,509.7,408.2z"/>
</svg>
