<?xml version="1.0" encoding="utf-8"?>
<!-- Generator: Adobe Illustrator 21.0.0, SVG Export Plug-In . SVG Version: 6.00 Build 0)  -->
<svg version="1.1" id="Слой_1" xmlns="http://www.w3.org/2000/svg" xmlns:xlink="http://www.w3.org/1999/xlink" x="0px" y="0px"
	 viewBox="0 0 512 512" style="enable-background:new 0 0 512 512;" xml:space="preserve">
<path d="M509.6,497.9L344.4,332.7c-0.2-0.2-0.5-0.3-0.7-0.5c32.6-35.3,52.7-82.3,52.7-134.1C396.4,88.9,307.5,0,198.2,0
	S0,88.9,0,198.2c0,109.3,88.9,198.2,198.2,198.2c51.7,0,98.8-20.1,134.1-52.7c0.2,0.2,0.3,0.5,0.5,0.7l165.2,165.2
	c1.6,1.6,3.7,2.4,5.8,2.4c2.1,0,4.2-0.8,5.8-2.4C512.8,506.4,512.8,501.1,509.6,497.9z M198.2,379.9C98,379.9,16.5,298.4,16.5,198.2
	S98,16.5,198.2,16.5S379.9,98,379.9,198.2S298.4,379.9,198.2,379.9z"/>
</svg>
