<svg xmlns="http://www.w3.org/2000/svg" viewBox="0 0 231.94 85.24"><defs><style>.cls-1{fill:#8111AE; fill-rule:evenodd;}</style></defs><title>Ресурс 1</title><g id="Слой_2" data-name="Слой 2"><g id="_1" data-name="???? 1"><path class="cls-1" d="M64.95,46.29a32.52,32.52,0,0,0-27.23-32l0-.24c.16-.88.29-2,.42-3.19.77-6,.93-8.44,1.09-10.82q-.87,5.2-1.71,10.42a3.32,3.32,0,0,0-1.52.83,31,31,0,0,0-2.6,2.58l-.95,0a32.46,32.46,0,0,0-18.9,58.86c0,.69.05,1.35.08,2a71.39,71.39,0,0,0,.7,7.21l3.49,1.26c-.24-2.61-.47-5.22-.64-8.15a32.27,32.27,0,0,0,15.27,3.82h.46q0,3.24,0,6.49L35.7,78.6A32.52,32.52,0,0,0,64.95,46.29ZM41.46,75.76l.79.23a31,31,0,0,1-6.42,1.39c-.22-2.83-.43-5.66-.62-8.5,1.69.18,3.45.37,5.26.58Q41,72.61,41.46,75.76Zm-6.35-8.45c-.28-4.32-.48-8.68-.55-13.11l3.85.44c.54,4.57,1.2,9.15,1.9,13.74C38.52,68,36.78,67.63,35.11,67.31Zm.06-50.6a4.28,4.28,0,0,1,1.52-.8c-1.1,7.28-2,14.71-2.68,22.47a52.45,52.45,0,0,0-9.14-1.48,6.79,6.79,0,0,0-2.87.48,61.34,61.34,0,0,1,3.13-7A63.93,63.93,0,0,1,30,22.75,38,38,0,0,1,35.17,16.71ZM21.63,38.33l0-.12a11.47,11.47,0,0,1,3-.26c2.22,0,5.62.39,9.31.83,0,.52-.09,1-.13,1.56-.3,4-.5,8.2-.64,12.4A62.73,62.73,0,0,0,23,51.37a12.45,12.45,0,0,0-5,.77c.25-1.68.56-3.39.93-5A68.2,68.2,0,0,1,21.63,38.33ZM17,65.24c0-3,.15-5.5.46-8.5.1-1,.23-2.06.38-3.14a22.57,22.57,0,0,1,4.81-.34c2.71,0,6.4.35,10.57.79Q33,60.4,32.94,66.91a59.59,59.59,0,0,0-8.95-1c-3.38,0-5.49.61-7,1.57C17,66.69,17,65.95,17,65.24ZM34.54,53c0-2.85,0-5.74.13-8.66.07-1.81.18-3.63.31-5.44l2.17.26q.08,2.07.21,4.14c.22,3.49.56,7,1,10.51C37,53.52,35.77,53.25,34.54,53ZM35,38.59c.52-7.24,1.41-14.39,2.17-20.17-.2,6.86-.3,13.73,0,20.66ZM1.2,46.29A31.31,31.31,0,0,1,32.34,15l-.93,1A61.53,61.53,0,0,0,26.2,22.5,91.17,91.17,0,0,0,21,31.36,51.07,51.07,0,0,0,17,40.54a91.22,91.22,0,0,0-2.53,11.27,70.47,70.47,0,0,0-1,10.4c-.08,2.76-.06,6,0,9A31.24,31.24,0,0,1,1.2,46.29ZM32.47,77.57a31.07,31.07,0,0,1-15.34-4c-.07-1.59-.13-3.22-.15-4.84a21.77,21.77,0,0,1,6.6-.67c2.49,0,5.71.27,9.35.63q0,4.43,0,8.91Zm10.86-1.95c-.41-2-.82-4-1.21-6l8.29,1c-2.85-.66-5.7-1.32-8.47-1.93-.88-4.48-1.7-9.07-2.36-14l6.47.79c-2.2-.51-4.41-1-6.56-1.5-.29-2.24-.56-4.53-.78-6.92-1-10.85-1.06-23.36-1.13-29.59,0-.8,0-1.49,0-2.09v0a31.27,31.27,0,0,1,5.78,60.18Zm51-49.31h.51q.51,4.88.64,6,.39,3.61.65,5.6t.7,5.19L95.71,43l-1.15.07q-.22-2.45-.4-4.68T93.74,34q-.23-2.18-.43-3.55l-2.6,4.7q-1.27,2.35-2.13,4.07-.93,1.89-1.69,3.6h-.27L85.27,40q-.88-1.84-1.57-3.17T82,33.6q-.86-1.59-1.69-3.18-.42,3.5-.81,7.08a54.53,54.53,0,0,0-.39,5.56L78.27,43l-.88.07q.51-3.18,1.35-9.05t1-7.7h.64l2.08,4.09q1,1.89,2.33,4.33,1.47,2.67,2.52,4.41L94.36,26.3Zm18.74,9.25v7.53L112,43l-1.08.07V36l-6-9.7,1.37.07,1.35-.07q.81,1.59,2.41,4.41t2.24,3.8a19.72,19.72,0,0,0,1.42-2.25q.74-1.27,1.91-3.45.66-1.25,1.35-2.5l1,.07,1-.07c-.6.77-1.18,1.59-1.74,2.45l-2.69,4.34c-.33.51-.58.93-.77,1.25s-.39.73-.6,1.2Zm24.1-8.27v14.6l2,0,1.25,0a17.27,17.27,0,0,0,2.28-.12,5.24,5.24,0,0,0,1.69-.54,5.77,5.77,0,0,0,2.74-2.89,10,10,0,0,0,.78-4.14q0-3.87-1.73-5.47t-5.89-1.6l-1.74,0-1.35,0ZM135,43V26.3h7.23a11.91,11.91,0,0,1,3.5.39,5.61,5.61,0,0,1,1.91,1.08,6.57,6.57,0,0,1,2,2.7,9.11,9.11,0,0,1,.65,3.43,10.15,10.15,0,0,1-.86,4.29,8.89,8.89,0,0,1-2.23,2.94,7.15,7.15,0,0,1-2.63,1.38,17.64,17.64,0,0,1-4.76.48ZM162.92,26.3v9.36q0,3.38,1.13,4.87,1.25,1.66,4.29,1.66a4.66,4.66,0,0,0,4.09-1.88,8.46,8.46,0,0,0,1.2-4.89V26.3l.69.07.69-.07V36a7.22,7.22,0,0,1-1.92,5.42,7.19,7.19,0,0,1-5.23,1.87,7.64,7.64,0,0,1-5.32-1.71,5,5,0,0,1-1.44-2.55,12,12,0,0,1-.32-3V26.3l1.08.07,1.08-.07Zm25.77.91v6.44h1.07a14.35,14.35,0,0,0,1.73-.09,4.87,4.87,0,0,0,1.39-.4,3,3,0,0,0,1.88-3,2.54,2.54,0,0,0-1-2.31,5.78,5.78,0,0,0-3.1-.67Zm0,7.4v7.47h2.45a4.22,4.22,0,0,0,3-1.05,3.55,3.55,0,0,0,1.15-2.74,3.16,3.16,0,0,0-1.42-2.92,7,7,0,0,0-3.65-.76ZM186.53,43V26.3h4.92a8.63,8.63,0,0,1,4.14.76,2.77,2.77,0,0,1,1.32,2.62,3.87,3.87,0,0,1-1.09,2.78A5.6,5.6,0,0,1,193,34a5.06,5.06,0,0,1,2.94.86,3.41,3.41,0,0,1,1.54,3,4.77,4.77,0,0,1-2.2,4.14,5.54,5.54,0,0,1-2.47.86,22.17,22.17,0,0,1-2.69.12Zm27.29-17,7.35,17.15-1.27-.1-1.3.07q-.88-2.52-1.49-4.07-.39-1-1.08-2.55H209.8q-1.42,3.55-1.59,4-.37,1-.83,2.57l-.91-.07-.86.07,7.64-17.12Zm1.82,9.48-2.7-6.25-2.68,6.25Zm14.15,7.67V26.3l1.08.07,1.08-.07V43.06L230.87,43Zm-148,12,4,9.32-.69-.05-.71,0q-.48-1.37-.81-2.21-.21-.53-.59-1.38H79.59q-.77,1.93-.87,2.2-.2.53-.45,1.4l-.49,0-.47,0,4.15-9.31Zm1,5.15-1.47-3.39-1.46,3.39Zm8.79-4.49v3.69h1.23a3,3,0,0,0,.49-.07,2.32,2.32,0,0,0,1.23-.66A1.71,1.71,0,0,0,95,57.45a1.55,1.55,0,0,0-1.47-1.67,5,5,0,0,0-.69,0H91.55Zm-1.17,8.65V55.28h2.82a4,4,0,0,1,2.24.5,1.73,1.73,0,0,1,.72,1.52,2.14,2.14,0,0,1-.85,1.76,4.18,4.18,0,0,1-1.88.77l2.74,3.47.65.75.25.34-.77,0-.76,0-.85-1.17-1.56-2-1.07-1.26h-.5v4.46l-.59,0-.59.05Zm15.07-9.32,4,9.32-.69-.05-.71,0q-.48-1.37-.81-2.21-.21-.53-.59-1.38h-3.38q-.77,1.93-.87,2.2-.2.53-.45,1.4l-.49,0-.47,0,4.15-9.31Zm1,5.15L105,56.83l-1.46,3.39Zm8.79-4.46v3.5h.58a7.72,7.72,0,0,0,.94,0,2.66,2.66,0,0,0,.76-.22,1.62,1.62,0,0,0,1-1.61,1.38,1.38,0,0,0-.57-1.26,3.14,3.14,0,0,0-1.68-.37Zm0,4v4.06h1.33a2.29,2.29,0,0,0,1.61-.57,1.93,1.93,0,0,0,.63-1.49A1.72,1.72,0,0,0,118,60.2a3.82,3.82,0,0,0-2-.41Zm-1.17,4.55V55.28h2.68a4.68,4.68,0,0,1,2.25.41,1.5,1.5,0,0,1,.72,1.42,2.1,2.1,0,0,1-.59,1.51,3,3,0,0,1-1.51.85,2.75,2.75,0,0,1,1.6.47,1.85,1.85,0,0,1,.84,1.62,2.59,2.59,0,0,1-1.2,2.25,3,3,0,0,1-1.34.47,12.11,12.11,0,0,1-1.46.07Zm11.66.05V55.28l.59,0,.59,0v9.11l-.59,0-.59.05Zm10.57-9.32,4,9.32-.69-.05-.71,0q-.48-1.37-.81-2.21-.21-.53-.59-1.38h-3.38q-.77,1.93-.87,2.2-.2.53-.45,1.4l-.49,0-.47,0L136,55.08Zm1,5.15-1.47-3.39-1.46,3.39Zm15.48-5v9.12h-.4l-.7-.82-5.74-6.37h-.13v7.18l-.37,0-.37.05V55.28h.52l6.31,6.86H152V55.28l.37,0,.37,0ZM163.7,60.2v4.19l-.59-.05-.59,0V55.28h2.38a5.34,5.34,0,0,1,2.69.48,1.87,1.87,0,0,1,.75,1.7,2.34,2.34,0,0,1-.72,1.82,4.51,4.51,0,0,1-2.13.89,2.73,2.73,0,0,1-.47.05h-.88l-.45,0Zm0-4.42v3.9h1.09l.23,0a2.35,2.35,0,0,0,1.54-.68,2.06,2.06,0,0,0,.56-1.48,1.82,1.82,0,0,0-.35-1.16,1.27,1.27,0,0,0-.87-.54q-.48,0-.75,0H163.7Zm13.07-.71,4,9.32-.69-.05-.71,0q-.48-1.37-.81-2.21-.21-.53-.59-1.38h-3.38q-.77,1.93-.87,2.2-.2.53-.45,1.4l-.49,0-.47,0,4.15-9.31Zm1,5.15-1.47-3.39-1.46,3.39Zm8.79-4.49v3.69h1.23a3,3,0,0,0,.49-.07,2.32,2.32,0,0,0,1.23-.66,1.71,1.71,0,0,0,.48-1.24,1.55,1.55,0,0,0-1.47-1.67,5,5,0,0,0-.69,0h-1.27Zm-1.17,8.65V55.28h2.82a4,4,0,0,1,2.24.5,1.73,1.73,0,0,1,.72,1.52,2.14,2.14,0,0,1-.85,1.76,4.19,4.19,0,0,1-1.88.77l2.74,3.47.65.75.25.34-.77,0-.76,0-.85-1.17-1.56-2-1.07-1.26h-.5v4.46l-.59,0-.59.05Zm11.82,0V55.28h4.73l0,.38,0,.39-.65-.11a4.19,4.19,0,0,0-.55,0h-2.36v3.34h2.06l.67,0,.51,0,0,.35,0,.37-.67,0-.52,0h-2.06v4.55l-.59,0-.59.05Zm11.6-9.12v5.09a4.45,4.45,0,0,0,.61,2.65,2.74,2.74,0,0,0,2.33.9,2.53,2.53,0,0,0,2.22-1,4.6,4.6,0,0,0,.65-2.66v-5l.37,0,.37,0v5.29a3.58,3.58,0,0,1-3.89,4,4.15,4.15,0,0,1-2.89-.93,2.73,2.73,0,0,1-.79-1.38,6.51,6.51,0,0,1-.17-1.62V55.28l.59,0,.59,0Zm21.45,0h.28q.28,2.65.35,3.25.21,2,.35,3t.38,2.82l-.63-.05-.63,0q-.12-1.33-.22-2.54t-.23-2.4q-.13-1.18-.23-1.93l-1.41,2.56q-.69,1.28-1.16,2.21t-.92,2H226l-.73-1.5q-.48-1-.85-1.72l-.92-1.76-.92-1.73q-.23,1.9-.44,3.85a29.62,29.62,0,0,0-.21,3l-.47,0-.48,0q.28-1.73.73-4.92t.55-4.19h.35l1.13,2.22q.53,1,1.26,2.36t1.37,2.4Z"/></g></g></svg>