<svg width="4" height="9" viewBox="0 0 4 9" fill="none" xmlns="http://www.w3.org/2000/svg">
<path d="M0.0999023 7.4L1.5999 8.9C1.5999 8.9 1.6999 9 1.7999 9C1.8999 9 2.0999 9 2.1999 9C2.2999 9 2.2999 8.9 2.3999 8.9L3.8999 7.4C3.9999 7.2 3.9999 6.8 3.8999 6.6C3.7999 6.4 3.3999 6.4 3.1999 6.6L2.4999 7.3V0.5C2.4999 0.2 2.2999 0 1.9999 0C1.6999 0 1.4999 0.2 1.4999 0.5V7.3L0.899902 6.6C0.799902 6.5 0.599902 6.5 0.499902 6.5C0.399902 6.5 0.199902 6.5 0.0999023 6.6C-9.76548e-05 6.8 -9.76548e-05 7.2 0.0999023 7.4Z" fill="black" fill-opacity="0.6"/>
</svg>
