<svg width="14" height="14" viewBox="0 0 14 14" fill="none" xmlns="http://www.w3.org/2000/svg">
<path d="M13.5008 13.0069H0.499106C0.225761 13.0069 0.0118382 13.237 0.0118382 13.5035C0.0118382 13.7699 0.237645 14 0.499106 14H13.5127C13.7861 14 14 13.7699 14 13.5035C14 13.237 13.7742 13.0069 13.5008 13.0069Z" fill="#8111AE"/>
<path d="M0.0118846 8.61073L0 10.9723C0 11.1055 0.0475384 11.2388 0.142615 11.3356C0.237692 11.4325 0.356538 11.481 0.487268 11.481L2.79288 11.4689C2.92361 11.4689 3.04245 11.4204 3.13753 11.3235L11.1002 3.20934C11.2904 3.01557 11.2904 2.70069 11.1002 2.49481L8.81837 0.145329C8.62821 -0.0484429 8.31921 -0.0484429 8.11717 0.145329L6.52464 1.78028L0.1545 8.25952C0.0713076 8.3564 0.0118846 8.47751 0.0118846 8.61073ZM8.47371 1.21107L10.0781 2.84602L9.1749 3.76644L7.57048 2.13149L8.47371 1.21107ZM0.998305 8.82872L6.86929 2.84602L8.47371 4.48097L2.60272 10.4516L0.986421 10.4637L0.998305 8.82872Z" fill="#8111AE"/>
</svg>
