<svg width="20" height="12" viewBox="0 0 20 12" fill="none" xmlns="http://www.w3.org/2000/svg">
<path d="M19.509 11.5801H16.5869C15.8564 11.6622 15.207 11.3338 14.72 10.8411C14.3142 10.4306 13.9895 10.02 13.5836 9.52735C13.4213 9.36313 13.259 9.19891 13.0155 9.03468C12.6096 8.78835 12.2849 8.87046 12.0414 9.28102C11.7979 9.69158 11.7979 10.1842 11.7167 10.6769C11.7167 11.3338 11.4732 11.5801 10.7427 11.5801C9.28166 11.6622 7.90181 11.4159 6.60311 10.6769C5.46674 10.02 4.57388 9.03469 3.76219 8.04935C2.30115 5.99656 1.08361 3.69745 0.109582 1.39833C-0.133925 0.905659 0.0283937 0.577213 0.596577 0.577213C1.57061 0.577213 2.46346 0.577213 3.43749 0.577213C3.84334 0.577213 4.08685 0.823547 4.24918 1.15199C4.7362 2.46578 5.38557 3.61533 6.19726 4.76489C6.3596 5.01123 6.6031 5.33967 6.92778 5.58601C7.25245 5.83234 7.49595 5.75023 7.65829 5.33967C7.73946 5.09334 7.82064 4.847 7.82064 4.60067C7.90181 3.69745 7.9018 2.79422 7.73947 1.97311C7.6583 1.39833 7.33361 1.06988 6.76543 0.98777C6.52192 0.905659 6.52192 0.823547 6.68425 0.659324C6.92776 0.41299 7.17127 0.166656 7.57712 0.166656H10.8239C11.3109 0.248768 11.4732 0.495102 11.5544 0.98777V4.68278C11.5544 4.847 11.6356 5.5039 12.0414 5.66812C12.2849 5.75023 12.5284 5.5039 12.6908 5.33967C13.5025 4.51856 14.0706 3.45111 14.5577 2.46577C14.8012 1.97311 14.9635 1.56255 15.1259 1.06988C15.2882 0.741436 15.5317 0.577213 15.8564 0.577213H19.022C19.1031 0.577213 19.1843 0.577213 19.2655 0.577213C19.8336 0.659325 19.9148 0.905659 19.7525 1.39833C19.509 2.21944 19.0219 2.87633 18.4538 3.61533C17.8856 4.35434 17.3174 5.09334 16.8304 5.83234C16.4245 6.48923 16.4245 6.89979 16.9927 7.47457C17.6421 8.13146 18.3726 8.70624 18.9408 9.44524C19.1843 9.77369 19.4278 10.1021 19.6713 10.5127C20.2395 10.9232 19.996 11.5801 19.509 11.5801Z" fill="#8111AE"/>
</svg>
