<svg width="16" height="16" viewBox="0 0 16 16" fill="none" xmlns="http://www.w3.org/2000/svg">
<path d="M11.1443 0H4.77612C2.14925 0 0 2.16 0 4.8V11.2C0 13.84 2.06965 16 4.77612 16H11.2239C13.8507 16 16 13.92 16 11.2V4.8C15.9204 2.16 13.8507 0 11.1443 0ZM14.3284 11.2C14.3284 12.96 12.8955 14.4 11.1443 14.4H4.77612C3.02487 14.4 1.59204 12.96 1.59204 11.2V4.8C1.59204 3.04 3.02487 1.6 4.77612 1.6H11.2239C12.9751 1.6 14.408 3.04 14.408 4.8V11.2H14.3284ZM7.9602 3.84C5.65174 3.84 3.90049 5.68 3.90049 8C3.90049 10.24 5.73134 12.08 7.9602 12.08C10.2687 12.08 12.0199 10.24 12.0199 8C12.0199 5.68 10.2687 3.84 7.9602 3.84ZM7.9602 10.56C6.52736 10.56 5.49253 9.44 5.49253 8C5.49253 6.56 6.60696 5.52 7.9602 5.52C9.31343 5.52 10.4279 6.64 10.4279 8C10.4279 9.44 9.39303 10.56 7.9602 10.56ZM12.0995 2.96C12.6567 2.96 13.0547 3.44 13.0547 3.92C13.0547 4.48 12.5771 4.88 12.0995 4.88C11.5423 4.88 11.1443 4.4 11.1443 3.92C11.0647 3.36 11.5423 2.96 12.0995 2.96Z" fill="#8111AE"/>
</svg>
