<svg width="16" height="16" viewBox="0 0 16 16" fill="none" xmlns="http://www.w3.org/2000/svg">
<path d="M15.9291 12.7559L15.8478 12.5122C15.6603 11.9528 15.0416 11.3685 14.4728 11.2123L12.3696 10.6373C11.8009 10.4842 10.9884 10.6904 10.5696 11.1091L9.81024 11.8685C7.0477 11.1216 4.87892 8.95301 4.13203 6.18754L4.89142 5.42821C5.30705 5.01261 5.51643 4.20015 5.3633 3.62831L4.79142 1.5253C4.63829 0.956582 4.05078 0.337867 3.4914 0.150378L3.25077 0.0722569C2.69139 -0.115233 1.88825 0.0753817 1.47262 0.490984L0.335106 1.63154C0.131978 1.83466 0.00072649 2.41275 0.00072649 2.41275C-0.036774 6.02817 1.37887 9.50923 3.93516 12.0653C6.48519 14.6152 9.95087 16.0307 13.554 15.9995C13.5728 15.9995 14.1697 15.8714 14.3728 15.6683L15.5103 14.5308C15.926 14.1152 16.1135 13.3153 15.9291 12.7559Z" fill="#8111AE"/>
</svg>
