<svg width="20" height="20" viewBox="0 0 20 20" fill="none" xmlns="http://www.w3.org/2000/svg">
<path d="M15.1 12.5L15 13C14.9 13.6 14.6 14 14.1 14.3C13.5 14.7 12.7 14.8 11.8 14.6C8.8 13.7 7 11.7 6.1 10.5C5.2 9.2 4.8 8 5 7C5.2 6.3 5.7 5.8 6 5.5C6.2 5.4 6.4 5.3 6.6 5.3L7.3 5.4C7.4 5.4 7.5 5.5 7.6 5.6L8.5 7.8C8.6 7.9 8.5 8 8.4 8.1L7.6 9C7.5 9.1 7.5 9.2 7.6 9.3C8.7 11.4 10.7 12.2 11.2 12.4C11.3 12.4 11.4 12.4 11.5 12.3L12.4 11.2C12.5 11.1 12.7 11.1 12.8 11.1L15 12.1C15.1 12.2 15.1 12.4 15.1 12.5ZM14.9 12.1L12.7 11.1C12.5 11.1 12.4 11.1 12.3 11.2L11.4 12.3C11.3 12.4 11.2 12.4 11.1 12.4C10.5 12.2 8.5 11.4 7.5 9.3C7.5 9.2 7.5 9.1 7.5 9L8.3 8.1C8.5 8 8.5 7.9 8.4 7.8L7.5 5.5C7.4 5.4 7.3 5.4 7.2 5.3H6.6C6.4 5.3 6.2 5.4 6 5.5C5.7 5.8 5.2 6.3 5 7C4.8 8 5.1 9.3 6.1 10.5C7 11.7 8.7 13.8 11.8 14.6C12.8 14.9 13.6 14.7 14.1 14.3C14.6 14 14.9 13.5 15 13L15.1 12.5C15.1 12.4 15.1 12.2 14.9 12.1ZM14.9 12.1L12.7 11.1C12.5 11.1 12.4 11.1 12.3 11.2L11.4 12.3C11.3 12.4 11.2 12.4 11.1 12.4C10.5 12.2 8.5 11.4 7.5 9.3C7.5 9.2 7.5 9.1 7.5 9L8.3 8.1C8.5 8 8.5 7.9 8.4 7.8L7.5 5.5C7.4 5.4 7.3 5.4 7.2 5.3H6.6C6.4 5.3 6.2 5.4 6 5.5C5.7 5.8 5.2 6.3 5 7C4.8 8 5.1 9.3 6.1 10.5C7 11.7 8.7 13.8 11.8 14.6C12.8 14.9 13.6 14.7 14.1 14.3C14.6 14 14.9 13.5 15 13L15.1 12.5C15.1 12.4 15.1 12.2 14.9 12.1ZM20 10C20 15.5 15.5 20 10 20C8.3 20 6.6 19.6 5.1 18.7L0 20L1.4 15C0.5 13.5 0 11.7 0 10C0 4.5 4.5 0 10 0C15.5 0 20 4.5 20 10ZM18.3 10C18.3 5.5 14.6 1.7 10 1.7C5.4 1.7 1.7 5.4 1.7 10C1.7 11.6 2.2 13.2 3 14.5L3.2 14.8L2.4 17.7L5.4 16.9L5.7 17C7 17.8 8.5 18.2 10 18.2C14.6 18.3 18.3 14.5 18.3 10ZM14.9 12.1L12.7 11.1C12.5 11.1 12.4 11.1 12.3 11.2L11.4 12.3C11.3 12.4 11.2 12.4 11.1 12.4C10.5 12.2 8.5 11.4 7.5 9.3C7.5 9.2 7.5 9.1 7.5 9L8.3 8.1C8.5 8 8.5 7.9 8.4 7.8L7.5 5.5C7.4 5.4 7.3 5.4 7.2 5.3H6.6C6.4 5.3 6.2 5.4 6 5.5C5.7 5.8 5.2 6.3 5 7C4.8 8 5.1 9.3 6.1 10.5C7 11.7 8.7 13.8 11.8 14.6C12.8 14.9 13.6 14.7 14.1 14.3C14.6 14 14.9 13.5 15 13L15.1 12.5C15.1 12.4 15.1 12.2 14.9 12.1ZM20 10C20 15.5 15.5 20 10 20C8.3 20 6.6 19.6 5.1 18.7L0 20L1.4 15C0.5 13.5 0 11.7 0 10C0 4.5 4.5 0 10 0C15.5 0 20 4.5 20 10ZM18.3 10C18.3 5.5 14.6 1.7 10 1.7C5.4 1.7 1.7 5.4 1.7 10C1.7 11.6 2.2 13.2 3 14.5L3.2 14.8L2.4 17.7L5.4 16.9L5.7 17C7 17.8 8.5 18.2 10 18.2C14.6 18.3 18.3 14.5 18.3 10Z" fill="#8111AE"/>
</svg>
