<svg width="15" height="20" viewBox="0 0 15 20" fill="none" xmlns="http://www.w3.org/2000/svg">
<path d="M7.36472 0C3.30533 0 0 3.30533 0 7.36472C0 8.42352 0.214886 9.43544 0.644657 10.3692C2.48486 14.3973 6.0168 18.6521 7.05606 19.8593C7.1342 19.9492 7.24751 20 7.36472 20C7.48193 20 7.59914 19.9492 7.67337 19.8593C8.71264 18.6521 12.2407 14.3973 14.0848 10.3692C14.5106 9.43544 14.7294 8.42352 14.7294 7.36472C14.7294 3.30533 11.4241 0 7.36472 0ZM7.36472 11.1897C5.25493 11.1897 3.53975 9.47451 3.53975 7.36472C3.53975 5.25493 5.25493 3.53975 7.36472 3.53975C9.4745 3.53975 11.1897 5.25493 11.1897 7.36472C11.1897 9.47451 9.4745 11.1897 7.36472 11.1897Z" fill="#8111AE"/>
</svg>
