<svg width="20" height="20" viewBox="0 0 20 20" fill="none" xmlns="http://www.w3.org/2000/svg">
<path d="M11.9573 8.03438C11.9573 8.13418 11.9573 8.13418 11.9573 8.23399C11.9573 8.3338 11.8572 8.4336 11.7572 8.4336H11.6571C11.5571 8.4336 11.457 8.3338 11.457 8.13418C11.457 8.03438 11.457 7.83477 11.457 7.73496C11.3569 7.53535 11.2569 7.23593 11.0567 7.13612C10.8566 7.03632 10.7566 7.03632 10.6565 7.03632C10.4564 6.93651 10.3563 6.93651 10.2563 6.93651C10.0561 6.83671 9.95607 6.7369 9.95607 6.63709C9.95607 6.53729 10.1562 6.43748 10.2563 6.43748C11.1568 6.43748 11.8572 6.93651 11.9573 8.03438ZM12.6577 8.4336C12.6577 8.53341 12.6577 8.63321 12.6577 8.63321C12.7578 8.83283 13.058 8.83283 13.158 8.63321C13.158 8.53341 13.158 8.53341 13.158 8.4336C13.158 8.3338 13.158 8.23399 13.158 8.13418C13.158 8.03438 13.158 8.03438 13.158 7.93457C12.9579 6.83671 12.4576 6.03826 11.457 5.53923C10.9567 5.33962 10.4564 5.14001 9.95607 5.14001C9.75595 5.14001 9.65589 5.23981 9.65589 5.33962C9.65589 5.53923 9.75595 5.63904 9.85601 5.63904C9.95607 5.63904 10.1562 5.63904 10.2563 5.73884C10.5564 5.73884 10.8566 5.83865 11.1568 6.03826C11.5571 6.23787 11.9573 6.63709 12.2575 7.03632C12.5577 7.43554 12.6577 7.93457 12.6577 8.4336ZM13.058 11.1284C12.7578 10.9288 12.4576 10.7291 12.2575 10.5295C11.9573 10.3299 11.5571 10.3299 11.3569 10.5295C11.0567 10.7291 10.9567 11.2282 10.5564 11.2282C10.3563 11.2282 10.1562 11.1284 9.95607 11.1284C8.65528 10.6293 7.85479 9.63127 7.45455 8.3338C7.45455 8.13418 7.45455 8.03438 7.55461 7.83477C7.55461 7.73496 7.65467 7.63515 7.75473 7.63515C7.85479 7.53535 7.95485 7.53535 7.95485 7.43554C8.15498 7.23593 8.15498 6.7369 7.95485 6.33768C7.65467 5.73884 7.25443 5.14001 6.75412 4.64098C6.554 4.44136 6.25382 4.34156 5.95363 4.44136C5.55339 4.64098 5.25321 4.84059 4.95302 5.14001C4.7529 5.53923 4.45272 6.03826 4.65284 6.43748C4.85296 6.93651 5.05308 7.43554 5.25321 7.83477C5.75351 8.83283 6.35388 9.73108 7.0543 10.6293C8.3551 12.1264 9.95608 13.0247 11.7572 13.8231C11.9573 13.9229 12.0574 13.9229 12.2575 14.0227C12.4576 14.0227 12.5577 13.9229 12.7578 13.9229C13.2581 13.6235 13.6583 13.2243 13.8585 12.6255C14.0586 12.326 13.9585 12.0266 13.6583 11.827C13.5583 11.5276 13.3582 11.328 13.058 11.1284ZM14.3588 7.73496C13.8585 5.43942 11.9573 3.94233 9.65589 3.84253H9.45577C9.35571 3.84253 9.15559 4.04214 9.25565 4.14195C9.25565 4.34156 9.45577 4.34156 9.65589 4.34156C9.95607 4.34156 10.1562 4.34156 10.4564 4.44136C12.1574 4.74078 13.5583 6.13807 13.8585 7.93457C13.8585 8.23399 13.9585 8.63321 13.9585 8.93263C13.9585 9.13224 14.0586 9.23205 14.2587 9.23205C14.4588 9.23205 14.5589 9.03244 14.5589 8.93263C14.3588 8.53341 14.3588 8.13418 14.3588 7.73496ZM13.8585 11.7272C13.5583 11.5276 13.3582 11.328 13.058 11.1284C12.7578 10.9288 12.4576 10.7291 12.2575 10.5295C11.9573 10.3299 11.5571 10.3299 11.3569 10.5295C11.0567 10.7291 10.9567 11.2282 10.5564 11.2282C10.3563 11.2282 10.1562 11.1284 9.95607 11.1284C8.65528 10.6293 7.85479 9.63127 7.45455 8.3338C7.45455 8.13418 7.45455 8.03438 7.55461 7.83477C7.55461 7.73496 7.65467 7.63515 7.75473 7.63515C7.85479 7.53535 7.95485 7.53535 7.95485 7.43554C8.15498 7.23593 8.15498 6.7369 7.95485 6.33768C7.65467 5.73884 7.25443 5.14001 6.75412 4.64098C6.554 4.44136 6.25382 4.34156 5.95363 4.44136C5.55339 4.64098 5.25321 4.84059 4.95302 5.14001C4.7529 5.53923 4.45272 6.03826 4.65284 6.43748C4.85296 6.93651 5.05308 7.43554 5.25321 7.83477C5.75351 8.83283 6.35388 9.73108 7.0543 10.6293C8.3551 12.1264 9.95608 13.0247 11.7572 13.8231C11.9573 13.9229 12.0574 13.9229 12.2575 14.0227C12.1574 14.0227 12.3575 14.0227 12.3575 14.0227C12.5577 14.0227 12.6577 13.9229 12.8578 13.9229C13.3582 13.6235 13.7584 13.2243 13.9585 12.6255C14.1586 12.2262 14.0586 12.0266 13.8585 11.7272ZM13.158 8.03438C13.158 7.93457 13.158 7.93457 13.158 7.83477C12.9579 6.83671 12.4576 6.03826 11.457 5.53923C10.9567 5.33962 10.4564 5.14001 9.95607 5.14001C9.75595 5.14001 9.65589 5.23981 9.65589 5.33962C9.65589 5.53923 9.75595 5.63904 9.85601 5.63904C9.95607 5.63904 10.1562 5.63904 10.2563 5.73884C10.5564 5.73884 10.8566 5.83865 11.1568 6.03826C11.5571 6.23787 11.9573 6.63709 12.2575 7.03632C12.4576 7.43554 12.6577 7.93457 12.6577 8.4336C12.6577 8.53341 12.6577 8.63321 12.6577 8.63321C12.7578 8.83283 13.058 8.83283 13.158 8.63321C13.158 8.53341 13.158 8.53341 13.158 8.4336C13.158 8.23399 13.158 8.13418 13.158 8.03438ZM10.2563 6.33768C10.1562 6.33768 9.95607 6.43748 9.95607 6.53729C9.95607 6.63709 10.0561 6.83671 10.1562 6.83671C10.3563 6.83671 10.4564 6.83671 10.5564 6.93651C10.7566 7.03632 10.8566 7.03632 10.9567 7.13612C11.1568 7.23593 11.2569 7.53535 11.3569 7.73496C11.3569 7.83477 11.3569 7.93457 11.3569 8.13418C11.3569 8.23399 11.457 8.3338 11.5571 8.4336H11.6571C11.7572 8.4336 11.8572 8.3338 11.8572 8.23399C11.9573 8.13418 11.9573 8.03438 11.9573 8.03438C11.8572 6.93651 11.1568 6.43748 10.2563 6.33768ZM14.3588 7.73496C13.8585 5.43942 11.9573 3.94233 9.65589 3.84253H9.45577C9.35571 3.84253 9.15559 4.04214 9.25565 4.14195C9.25565 4.34156 9.45577 4.34156 9.65589 4.34156C9.95607 4.34156 10.1562 4.34156 10.4564 4.44136C12.1574 4.74078 13.5583 6.13807 13.8585 7.93457C13.8585 8.23399 13.9585 8.63321 13.9585 8.93263C13.9585 9.13224 14.0586 9.23205 14.2587 9.23205C14.4588 9.23205 14.5589 9.03244 14.5589 8.93263C14.3588 8.53341 14.3588 8.13418 14.3588 7.73496ZM10.2563 6.33768C10.1562 6.33768 9.95607 6.43748 9.95607 6.53729C9.95607 6.63709 10.0561 6.83671 10.1562 6.83671C10.3563 6.83671 10.4564 6.83671 10.5564 6.93651C10.7566 7.03632 10.8566 7.03632 10.9567 7.13612C11.1568 7.23593 11.2569 7.53535 11.3569 7.73496C11.3569 7.83477 11.3569 7.93457 11.3569 8.13418C11.3569 8.23399 11.457 8.3338 11.5571 8.4336H11.6571C11.7572 8.4336 11.8572 8.3338 11.8572 8.23399C11.9573 8.13418 11.9573 8.03438 11.9573 8.03438C11.8572 6.93651 11.1568 6.43748 10.2563 6.33768ZM12.6577 8.4336C12.6577 8.53341 12.6577 8.63321 12.6577 8.63321C12.7578 8.83283 13.058 8.83283 13.158 8.63321C13.158 8.53341 13.158 8.53341 13.158 8.4336C13.158 8.3338 13.158 8.23399 13.158 8.13418C13.158 8.03438 13.158 8.03438 13.158 7.93457C12.9579 6.83671 12.4576 6.03826 11.457 5.53923C10.9567 5.33962 10.4564 5.14001 9.95607 5.14001C9.75595 5.14001 9.65589 5.23981 9.65589 5.33962C9.65589 5.53923 9.75595 5.63904 9.85601 5.63904C9.95607 5.63904 10.1562 5.63904 10.2563 5.73884C10.5564 5.73884 10.8566 5.83865 11.1568 6.03826C11.5571 6.23787 11.9573 6.63709 12.2575 7.03632C12.5577 7.43554 12.6577 7.93457 12.6577 8.4336ZM13.058 11.1284C12.7578 10.9288 12.4576 10.7291 12.2575 10.5295C11.9573 10.3299 11.5571 10.3299 11.3569 10.5295C11.0567 10.7291 10.9567 11.2282 10.5564 11.2282C10.3563 11.2282 10.1562 11.1284 9.95607 11.1284C8.65528 10.6293 7.85479 9.63127 7.45455 8.3338C7.45455 8.13418 7.45455 8.03438 7.55461 7.83477C7.55461 7.73496 7.65467 7.63515 7.75473 7.63515C7.85479 7.53535 7.95485 7.53535 7.95485 7.43554C8.15498 7.23593 8.15498 6.7369 7.95485 6.33768C7.65467 5.73884 7.25443 5.14001 6.75412 4.64098C6.554 4.44136 6.25382 4.34156 5.95363 4.44136C5.55339 4.64098 5.25321 4.84059 4.95302 5.14001C4.7529 5.53923 4.45272 6.03826 4.65284 6.43748C4.85296 6.93651 5.05308 7.43554 5.25321 7.83477C5.75351 8.83283 6.35388 9.73108 7.0543 10.6293C8.3551 12.1264 9.95608 13.0247 11.7572 13.8231C11.9573 13.9229 12.0574 13.9229 12.2575 14.0227C12.4576 14.0227 12.5577 13.9229 12.7578 13.9229C13.2581 13.6235 13.6583 13.2243 13.8585 12.6255C14.0586 12.326 13.9585 12.0266 13.6583 11.827C13.5583 11.5276 13.3582 11.328 13.058 11.1284ZM14.3588 7.73496C13.8585 5.43942 11.9573 3.94233 9.65589 3.84253H9.45577C9.35571 3.84253 9.15559 4.04214 9.25565 4.14195C9.25565 4.34156 9.45577 4.34156 9.65589 4.34156C9.95607 4.34156 10.1562 4.34156 10.4564 4.44136C12.1574 4.74078 13.5583 6.13807 13.8585 7.93457C13.8585 8.23399 13.9585 8.63321 13.9585 8.93263C13.9585 9.13224 14.0586 9.23205 14.2587 9.23205C14.4588 9.23205 14.5589 9.03244 14.5589 8.93263C14.3588 8.53341 14.3588 8.13418 14.3588 7.73496ZM13.8585 11.7272C13.5583 11.5276 13.3582 11.328 13.058 11.1284C12.7578 10.9288 12.4576 10.7291 12.2575 10.5295C11.9573 10.3299 11.5571 10.3299 11.3569 10.5295C11.0567 10.7291 10.9567 11.2282 10.5564 11.2282C10.3563 11.2282 10.1562 11.1284 9.95607 11.1284C8.65528 10.6293 7.85479 9.63127 7.45455 8.3338C7.45455 8.13418 7.45455 8.03438 7.55461 7.83477C7.55461 7.73496 7.65467 7.63515 7.75473 7.63515C7.85479 7.53535 7.95485 7.53535 7.95485 7.43554C8.15498 7.23593 8.15498 6.7369 7.95485 6.33768C7.65467 5.73884 7.25443 5.14001 6.75412 4.64098C6.554 4.44136 6.25382 4.34156 5.95363 4.44136C5.55339 4.64098 5.25321 4.84059 4.95302 5.14001C4.7529 5.53923 4.45272 6.03826 4.65284 6.43748C4.85296 6.93651 5.05308 7.43554 5.25321 7.83477C5.75351 8.83283 6.35388 9.73108 7.0543 10.6293C8.3551 12.1264 9.95608 13.0247 11.7572 13.8231C11.9573 13.9229 12.0574 13.9229 12.2575 14.0227C12.1574 14.0227 12.3575 14.0227 12.3575 14.0227C12.5577 14.0227 12.6577 13.9229 12.8578 13.9229C13.3582 13.6235 13.7584 13.2243 13.9585 12.6255C14.1586 12.2262 14.0586 12.0266 13.8585 11.7272ZM13.158 8.03438C13.158 7.93457 13.158 7.93457 13.158 7.83477C12.9579 6.83671 12.4576 6.03826 11.457 5.53923C10.9567 5.33962 10.4564 5.14001 9.95607 5.14001C9.75595 5.14001 9.65589 5.23981 9.65589 5.33962C9.65589 5.53923 9.75595 5.63904 9.85601 5.63904C9.95607 5.63904 10.1562 5.63904 10.2563 5.73884C10.5564 5.73884 10.8566 5.83865 11.1568 6.03826C11.5571 6.23787 11.9573 6.63709 12.2575 7.03632C12.4576 7.43554 12.6577 7.93457 12.6577 8.4336C12.6577 8.53341 12.6577 8.63321 12.6577 8.63321C12.7578 8.83283 13.058 8.83283 13.158 8.63321C13.158 8.53341 13.158 8.53341 13.158 8.4336C13.158 8.23399 13.158 8.13418 13.158 8.03438ZM10.2563 6.33768C10.1562 6.33768 9.95607 6.43748 9.95607 6.53729C9.95607 6.63709 10.0561 6.83671 10.1562 6.83671C10.3563 6.83671 10.4564 6.83671 10.5564 6.93651C10.7566 7.03632 10.8566 7.03632 10.9567 7.13612C11.1568 7.23593 11.2569 7.53535 11.3569 7.73496C11.3569 7.83477 11.3569 7.93457 11.3569 8.13418C11.3569 8.23399 11.457 8.3338 11.5571 8.4336H11.6571C11.7572 8.4336 11.8572 8.3338 11.8572 8.23399C11.9573 8.13418 11.9573 8.03438 11.9573 8.03438C11.8572 6.93651 11.1568 6.43748 10.2563 6.33768ZM14.3588 7.73496C13.8585 5.43942 11.9573 3.94233 9.65589 3.84253H9.45577C9.35571 3.84253 9.15559 4.04214 9.25565 4.14195C9.25565 4.34156 9.45577 4.34156 9.65589 4.34156C9.95607 4.34156 10.1562 4.34156 10.4564 4.44136C12.1574 4.74078 13.5583 6.13807 13.8585 7.93457C13.8585 8.23399 13.9585 8.63321 13.9585 8.93263C13.9585 9.13224 14.0586 9.23205 14.2587 9.23205C14.4588 9.23205 14.5589 9.03244 14.5589 8.93263C14.3588 8.53341 14.3588 8.13418 14.3588 7.73496ZM10.2563 6.33768C10.1562 6.33768 9.95607 6.43748 9.95607 6.53729C9.95607 6.63709 10.0561 6.83671 10.1562 6.83671C10.3563 6.83671 10.4564 6.83671 10.5564 6.93651C10.7566 7.03632 10.8566 7.03632 10.9567 7.13612C11.1568 7.23593 11.2569 7.53535 11.3569 7.73496C11.3569 7.83477 11.3569 7.93457 11.3569 8.13418C11.3569 8.23399 11.457 8.3338 11.5571 8.4336H11.6571C11.7572 8.4336 11.8572 8.3338 11.8572 8.23399C11.9573 8.13418 11.9573 8.03438 11.9573 8.03438C11.8572 6.93651 11.1568 6.43748 10.2563 6.33768ZM12.6577 8.4336C12.6577 8.53341 12.6577 8.63321 12.6577 8.63321C12.7578 8.83283 13.058 8.83283 13.158 8.63321C13.158 8.53341 13.158 8.53341 13.158 8.4336C13.158 8.3338 13.158 8.23399 13.158 8.13418C13.158 8.03438 13.158 8.03438 13.158 7.93457C12.9579 6.83671 12.4576 6.03826 11.457 5.53923C10.9567 5.33962 10.4564 5.14001 9.95607 5.14001C9.75595 5.14001 9.65589 5.23981 9.65589 5.33962C9.65589 5.53923 9.75595 5.63904 9.85601 5.63904C9.95607 5.63904 10.1562 5.63904 10.2563 5.73884C10.5564 5.73884 10.8566 5.83865 11.1568 6.03826C11.5571 6.23787 11.9573 6.63709 12.2575 7.03632C12.5577 7.43554 12.6577 7.93457 12.6577 8.4336ZM13.058 11.1284C12.7578 10.9288 12.4576 10.7291 12.2575 10.5295C11.9573 10.3299 11.5571 10.3299 11.3569 10.5295C11.0567 10.7291 10.9567 11.2282 10.5564 11.2282C10.3563 11.2282 10.1562 11.1284 9.95607 11.1284C8.65528 10.6293 7.85479 9.63127 7.45455 8.3338C7.45455 8.13418 7.45455 8.03438 7.55461 7.83477C7.55461 7.73496 7.65467 7.63515 7.75473 7.63515C7.85479 7.53535 7.95485 7.53535 7.95485 7.43554C8.15498 7.23593 8.15498 6.7369 7.95485 6.33768C7.65467 5.73884 7.25443 5.14001 6.75412 4.64098C6.554 4.44136 6.25382 4.34156 5.95363 4.44136C5.55339 4.64098 5.25321 4.84059 4.95302 5.14001C4.7529 5.53923 4.45272 6.03826 4.65284 6.43748C4.85296 6.93651 5.05308 7.43554 5.25321 7.83477C5.75351 8.83283 6.35388 9.73108 7.0543 10.6293C8.3551 12.1264 9.95608 13.0247 11.7572 13.8231C11.9573 13.9229 12.0574 13.9229 12.2575 14.0227C12.4576 14.0227 12.5577 13.9229 12.7578 13.9229C13.2581 13.6235 13.6583 13.2243 13.8585 12.6255C14.0586 12.326 13.9585 12.0266 13.6583 11.827C13.5583 11.5276 13.3582 11.328 13.058 11.1284ZM14.3588 7.73496C13.8585 5.43942 11.9573 3.94233 9.65589 3.84253H9.45577C9.35571 3.84253 9.15559 4.04214 9.25565 4.14195C9.25565 4.34156 9.45577 4.34156 9.65589 4.34156C9.95607 4.34156 10.1562 4.34156 10.4564 4.44136C12.1574 4.74078 13.5583 6.13807 13.8585 7.93457C13.8585 8.23399 13.9585 8.63321 13.9585 8.93263C13.9585 9.13224 14.0586 9.23205 14.2587 9.23205C14.4588 9.23205 14.5589 9.03244 14.5589 8.93263C14.3588 8.53341 14.3588 8.13418 14.3588 7.73496ZM13.8585 11.7272C13.5583 11.5276 13.3582 11.328 13.058 11.1284C12.7578 10.9288 12.4576 10.7291 12.2575 10.5295C11.9573 10.3299 11.5571 10.3299 11.3569 10.5295C11.0567 10.7291 10.9567 11.2282 10.5564 11.2282C10.3563 11.2282 10.1562 11.1284 9.95607 11.1284C8.65528 10.6293 7.85479 9.63127 7.45455 8.3338C7.45455 8.13418 7.45455 8.03438 7.55461 7.83477C7.55461 7.73496 7.65467 7.63515 7.75473 7.63515C7.85479 7.53535 7.95485 7.53535 7.95485 7.43554C8.15498 7.23593 8.15498 6.7369 7.95485 6.33768C7.65467 5.73884 7.25443 5.14001 6.75412 4.64098C6.554 4.44136 6.25382 4.34156 5.95363 4.44136C5.55339 4.64098 5.25321 4.84059 4.95302 5.14001C4.7529 5.53923 4.45272 6.03826 4.65284 6.43748C4.85296 6.93651 5.05308 7.43554 5.25321 7.83477C5.75351 8.83283 6.35388 9.73108 7.0543 10.6293C8.3551 12.1264 9.95608 13.0247 11.7572 13.8231C11.9573 13.9229 12.0574 13.9229 12.2575 14.0227C12.1574 14.0227 12.3575 14.0227 12.3575 14.0227C12.5577 14.0227 12.6577 13.9229 12.8578 13.9229C13.3582 13.6235 13.7584 13.2243 13.9585 12.6255C14.1586 12.2262 14.0586 12.0266 13.8585 11.7272ZM13.158 8.03438C13.158 7.93457 13.158 7.93457 13.158 7.83477C12.9579 6.83671 12.4576 6.03826 11.457 5.53923C10.9567 5.33962 10.4564 5.14001 9.95607 5.14001C9.75595 5.14001 9.65589 5.23981 9.65589 5.33962C9.65589 5.53923 9.75595 5.63904 9.85601 5.63904C9.95607 5.63904 10.1562 5.63904 10.2563 5.73884C10.5564 5.73884 10.8566 5.83865 11.1568 6.03826C11.5571 6.23787 11.9573 6.63709 12.2575 7.03632C12.4576 7.43554 12.6577 7.93457 12.6577 8.4336C12.6577 8.53341 12.6577 8.63321 12.6577 8.63321C12.7578 8.83283 13.058 8.83283 13.158 8.63321C13.158 8.53341 13.158 8.53341 13.158 8.4336C13.158 8.23399 13.158 8.13418 13.158 8.03438ZM10.2563 6.33768C10.1562 6.33768 9.95607 6.43748 9.95607 6.53729C9.95607 6.63709 10.0561 6.83671 10.1562 6.83671C10.3563 6.83671 10.4564 6.83671 10.5564 6.93651C10.7566 7.03632 10.8566 7.03632 10.9567 7.13612C11.1568 7.23593 11.2569 7.53535 11.3569 7.73496C11.3569 7.83477 11.3569 7.93457 11.3569 8.13418C11.3569 8.23399 11.457 8.3338 11.5571 8.4336H11.6571C11.7572 8.4336 11.8572 8.3338 11.8572 8.23399C11.9573 8.13418 11.9573 8.03438 11.9573 8.03438C11.8572 6.93651 11.1568 6.43748 10.2563 6.33768ZM14.3588 7.73496C13.8585 5.43942 11.9573 3.94233 9.65589 3.84253H9.45577C9.35571 3.84253 9.15559 4.04214 9.25565 4.14195C9.25565 4.34156 9.45577 4.34156 9.65589 4.34156C9.95607 4.34156 10.1562 4.34156 10.4564 4.44136C12.1574 4.74078 13.5583 6.13807 13.8585 7.93457C13.8585 8.23399 13.9585 8.63321 13.9585 8.93263C13.9585 9.13224 14.0586 9.23205 14.2587 9.23205C14.4588 9.23205 14.5589 9.03244 14.5589 8.93263C14.3588 8.53341 14.3588 8.13418 14.3588 7.73496ZM10.2563 6.33768C10.1562 6.33768 9.95607 6.43748 9.95607 6.53729C9.95607 6.63709 10.0561 6.83671 10.1562 6.83671C10.3563 6.83671 10.4564 6.83671 10.5564 6.93651C10.7566 7.03632 10.8566 7.03632 10.9567 7.13612C11.1568 7.23593 11.2569 7.53535 11.3569 7.73496C11.3569 7.83477 11.3569 7.93457 11.3569 8.13418C11.3569 8.23399 11.457 8.3338 11.5571 8.4336H11.6571C11.7572 8.4336 11.8572 8.3338 11.8572 8.23399C11.9573 8.13418 11.9573 8.03438 11.9573 8.03438C11.8572 6.93651 11.1568 6.43748 10.2563 6.33768ZM12.6577 8.4336C12.6577 8.53341 12.6577 8.63321 12.6577 8.63321C12.7578 8.83283 13.058 8.83283 13.158 8.63321C13.158 8.53341 13.158 8.53341 13.158 8.4336C13.158 8.3338 13.158 8.23399 13.158 8.13418C13.158 8.03438 13.158 8.03438 13.158 7.93457C12.9579 6.83671 12.4576 6.03826 11.457 5.53923C10.9567 5.33962 10.4564 5.14001 9.95607 5.14001C9.75595 5.14001 9.65589 5.23981 9.65589 5.33962C9.65589 5.53923 9.75595 5.63904 9.85601 5.63904C9.95607 5.63904 10.1562 5.63904 10.2563 5.73884C10.5564 5.73884 10.8566 5.83865 11.1568 6.03826C11.5571 6.23787 11.9573 6.63709 12.2575 7.03632C12.5577 7.43554 12.6577 7.93457 12.6577 8.4336ZM13.058 11.1284C12.7578 10.9288 12.4576 10.7291 12.2575 10.5295C11.9573 10.3299 11.5571 10.3299 11.3569 10.5295C11.0567 10.7291 10.9567 11.2282 10.5564 11.2282C10.3563 11.2282 10.1562 11.1284 9.95607 11.1284C8.65528 10.6293 7.85479 9.63127 7.45455 8.3338C7.45455 8.13418 7.45455 8.03438 7.55461 7.83477C7.55461 7.73496 7.65467 7.63515 7.75473 7.63515C7.85479 7.53535 7.95485 7.53535 7.95485 7.43554C8.15498 7.23593 8.15498 6.7369 7.95485 6.33768C7.65467 5.73884 7.25443 5.14001 6.75412 4.64098C6.554 4.44136 6.25382 4.34156 5.95363 4.44136C5.55339 4.64098 5.25321 4.84059 4.95302 5.14001C4.7529 5.53923 4.45272 6.03826 4.65284 6.43748C4.85296 6.93651 5.05308 7.43554 5.25321 7.83477C5.75351 8.83283 6.35388 9.73108 7.0543 10.6293C8.3551 12.1264 9.95608 13.0247 11.7572 13.8231C11.9573 13.9229 12.0574 13.9229 12.2575 14.0227C12.4576 14.0227 12.5577 13.9229 12.7578 13.9229C13.2581 13.6235 13.6583 13.2243 13.8585 12.6255C14.0586 12.326 13.9585 12.0266 13.6583 11.827C13.5583 11.5276 13.3582 11.328 13.058 11.1284ZM14.3588 7.73496C13.8585 5.43942 11.9573 3.94233 9.65589 3.84253H9.45577C9.35571 3.84253 9.15559 4.04214 9.25565 4.14195C9.25565 4.34156 9.45577 4.34156 9.65589 4.34156C9.95607 4.34156 10.1562 4.34156 10.4564 4.44136C12.1574 4.74078 13.5583 6.13807 13.8585 7.93457C13.8585 8.23399 13.9585 8.63321 13.9585 8.93263C13.9585 9.13224 14.0586 9.23205 14.2587 9.23205C14.4588 9.23205 14.5589 9.03244 14.5589 8.93263C14.3588 8.53341 14.3588 8.13418 14.3588 7.73496ZM13.8585 11.7272C13.5583 11.5276 13.3582 11.328 13.058 11.1284C12.7578 10.9288 12.4576 10.7291 12.2575 10.5295C11.9573 10.3299 11.5571 10.3299 11.3569 10.5295C11.0567 10.7291 10.9567 11.2282 10.5564 11.2282C10.3563 11.2282 10.1562 11.1284 9.95607 11.1284C8.65528 10.6293 7.85479 9.63127 7.45455 8.3338C7.45455 8.13418 7.45455 8.03438 7.55461 7.83477C7.55461 7.73496 7.65467 7.63515 7.75473 7.63515C7.85479 7.53535 7.95485 7.53535 7.95485 7.43554C8.15498 7.23593 8.15498 6.7369 7.95485 6.33768C7.65467 5.73884 7.25443 5.14001 6.75412 4.64098C6.554 4.44136 6.25382 4.34156 5.95363 4.44136C5.55339 4.64098 5.25321 4.84059 4.95302 5.14001C4.7529 5.53923 4.45272 6.03826 4.65284 6.43748C4.85296 6.93651 5.05308 7.43554 5.25321 7.83477C5.75351 8.83283 6.35388 9.73108 7.0543 10.6293C8.3551 12.1264 9.95608 13.0247 11.7572 13.8231C11.9573 13.9229 12.0574 13.9229 12.2575 14.0227C12.1574 14.0227 12.3575 14.0227 12.3575 14.0227C12.5577 14.0227 12.6577 13.9229 12.8578 13.9229C13.3582 13.6235 13.7584 13.2243 13.9585 12.6255C14.1586 12.2262 14.0586 12.0266 13.8585 11.7272ZM13.158 8.03438C13.158 7.93457 13.158 7.93457 13.158 7.83477C12.9579 6.83671 12.4576 6.03826 11.457 5.53923C10.9567 5.33962 10.4564 5.14001 9.95607 5.14001C9.75595 5.14001 9.65589 5.23981 9.65589 5.33962C9.65589 5.53923 9.75595 5.63904 9.85601 5.63904C9.95607 5.63904 10.1562 5.63904 10.2563 5.73884C10.5564 5.73884 10.8566 5.83865 11.1568 6.03826C11.5571 6.23787 11.9573 6.63709 12.2575 7.03632C12.4576 7.43554 12.6577 7.93457 12.6577 8.4336C12.6577 8.53341 12.6577 8.63321 12.6577 8.63321C12.7578 8.83283 13.058 8.83283 13.158 8.63321C13.158 8.53341 13.158 8.53341 13.158 8.4336C13.158 8.23399 13.158 8.13418 13.158 8.03438ZM10.2563 6.33768C10.1562 6.33768 9.95607 6.43748 9.95607 6.53729C9.95607 6.63709 10.0561 6.83671 10.1562 6.83671C10.3563 6.83671 10.4564 6.83671 10.5564 6.93651C10.7566 7.03632 10.8566 7.03632 10.9567 7.13612C11.1568 7.23593 11.2569 7.53535 11.3569 7.73496C11.3569 7.83477 11.3569 7.93457 11.3569 8.13418C11.3569 8.23399 11.457 8.3338 11.5571 8.4336H11.6571C11.7572 8.4336 11.8572 8.3338 11.8572 8.23399C11.9573 8.13418 11.9573 8.03438 11.9573 8.03438C11.8572 6.93651 11.1568 6.43748 10.2563 6.33768ZM14.3588 7.73496C13.8585 5.43942 11.9573 3.94233 9.65589 3.84253H9.45577C9.35571 3.84253 9.15559 4.04214 9.25565 4.14195C9.25565 4.34156 9.45577 4.34156 9.65589 4.34156C9.95607 4.34156 10.1562 4.34156 10.4564 4.44136C12.1574 4.74078 13.5583 6.13807 13.8585 7.93457C13.8585 8.23399 13.9585 8.63321 13.9585 8.93263C13.9585 9.13224 14.0586 9.23205 14.2587 9.23205C14.4588 9.23205 14.5589 9.03244 14.5589 8.93263C14.3588 8.53341 14.3588 8.13418 14.3588 7.73496ZM10.2563 6.33768C10.1562 6.33768 9.95607 6.43748 9.95607 6.53729C9.95607 6.63709 10.0561 6.83671 10.1562 6.83671C10.3563 6.83671 10.4564 6.83671 10.5564 6.93651C10.7566 7.03632 10.8566 7.03632 10.9567 7.13612C11.1568 7.23593 11.2569 7.53535 11.3569 7.73496C11.3569 7.83477 11.3569 7.93457 11.3569 8.13418C11.3569 8.23399 11.457 8.3338 11.5571 8.4336H11.6571C11.7572 8.4336 11.8572 8.3338 11.8572 8.23399C11.9573 8.13418 11.9573 8.03438 11.9573 8.03438C11.8572 6.93651 11.1568 6.43748 10.2563 6.33768ZM12.6577 8.4336C12.6577 8.53341 12.6577 8.63321 12.6577 8.63321C12.7578 8.83283 13.058 8.83283 13.158 8.63321C13.158 8.53341 13.158 8.53341 13.158 8.4336C13.158 8.3338 13.158 8.23399 13.158 8.13418C13.158 8.03438 13.158 8.03438 13.158 7.93457C12.9579 6.83671 12.4576 6.03826 11.457 5.53923C10.9567 5.33962 10.4564 5.14001 9.95607 5.14001C9.75595 5.14001 9.65589 5.23981 9.65589 5.33962C9.65589 5.53923 9.75595 5.63904 9.85601 5.63904C9.95607 5.63904 10.1562 5.63904 10.2563 5.73884C10.5564 5.73884 10.8566 5.83865 11.1568 6.03826C11.5571 6.23787 11.9573 6.63709 12.2575 7.03632C12.5577 7.43554 12.6577 7.93457 12.6577 8.4336ZM13.058 11.1284C12.7578 10.9288 12.4576 10.7291 12.2575 10.5295C11.9573 10.3299 11.5571 10.3299 11.3569 10.5295C11.0567 10.7291 10.9567 11.2282 10.5564 11.2282C10.3563 11.2282 10.1562 11.1284 9.95607 11.1284C8.65528 10.6293 7.85479 9.63127 7.45455 8.3338C7.45455 8.13418 7.45455 8.03438 7.55461 7.83477C7.55461 7.73496 7.65467 7.63515 7.75473 7.63515C7.85479 7.53535 7.95485 7.53535 7.95485 7.43554C8.15498 7.23593 8.15498 6.7369 7.95485 6.33768C7.65467 5.73884 7.25443 5.14001 6.75412 4.64098C6.554 4.44136 6.25382 4.34156 5.95363 4.44136C5.55339 4.64098 5.25321 4.84059 4.95302 5.14001C4.7529 5.53923 4.45272 6.03826 4.65284 6.43748C4.85296 6.93651 5.05308 7.43554 5.25321 7.83477C5.75351 8.83283 6.35388 9.73108 7.0543 10.6293C8.3551 12.1264 9.95608 13.0247 11.7572 13.8231C11.9573 13.9229 12.0574 13.9229 12.2575 14.0227C12.4576 14.0227 12.5577 13.9229 12.7578 13.9229C13.2581 13.6235 13.6583 13.2243 13.8585 12.6255C14.0586 12.326 13.9585 12.0266 13.6583 11.827C13.5583 11.5276 13.3582 11.328 13.058 11.1284ZM9.65589 3.84253H9.45577C9.35571 3.84253 9.15559 4.04214 9.25565 4.14195C9.25565 4.34156 9.45577 4.34156 9.65589 4.34156C9.95607 4.34156 10.1562 4.34156 10.4564 4.44136C12.1574 4.74078 13.5583 6.13807 13.8585 7.93457C13.8585 8.23399 13.9585 8.63321 13.9585 8.93263C13.9585 9.13224 14.0586 9.23205 14.2587 9.23205C14.4588 9.23205 14.5589 9.03244 14.5589 8.93263C14.5589 8.53341 14.4588 8.13418 14.4588 7.73496C13.8585 5.43942 11.9573 3.94233 9.65589 3.84253ZM18.8615 12.7253C18.3612 14.6216 16.2599 16.6177 14.3588 17.0169C12.8578 17.3163 11.2569 17.5159 9.65589 17.5159C9.15559 17.5159 8.75534 17.5159 8.25504 17.5159L6.15375 19.7117C5.65345 20.3105 4.65284 19.9113 4.65284 19.1128V17.0169C2.85174 16.5179 0.850519 14.6216 0.450275 12.7253C-0.150092 10.1303 -0.150092 7.43554 0.450275 4.84059C0.850519 2.94428 2.9518 0.948156 4.85296 0.449127C7.95485 -0.149709 11.1568 -0.149709 14.2587 0.449127C16.1599 0.84835 18.2611 2.84447 18.7614 4.74078C19.4619 7.43554 19.4619 10.1303 18.8615 12.7253ZM17.1605 5.23981C16.8603 4.04214 15.2593 2.54505 13.9585 2.24563C11.0567 1.7466 8.15498 1.7466 5.25321 2.24563C3.95241 2.44525 2.35143 4.04214 2.05125 5.23981C1.55095 7.63515 1.55095 10.0305 2.05125 12.4258C2.25137 13.0247 2.65162 13.7233 3.25198 14.3222C3.85235 14.921 4.55278 15.3202 5.15314 15.5198L5.25321 15.6196V19.013C5.25321 19.2126 5.45333 19.2126 5.55339 19.1128L7.25443 17.4161C7.25443 17.4161 8.55522 16.1187 8.8554 15.8192H8.95546C10.6565 15.8192 12.2575 15.7194 13.9585 15.42C15.2593 15.1206 16.8603 13.6235 17.1605 12.4258C17.6608 10.0305 17.6608 7.63515 17.1605 5.23981ZM10.2563 6.33768C10.1562 6.33768 9.95607 6.43748 9.95607 6.53729C9.95607 6.63709 10.0561 6.83671 10.1562 6.83671C10.3563 6.83671 10.4564 6.83671 10.5564 6.93651C10.7566 7.03632 10.8566 7.03632 10.9567 7.13612C11.1568 7.23593 11.2569 7.53535 11.3569 7.73496C11.3569 7.83477 11.3569 7.93457 11.3569 8.13418C11.3569 8.23399 11.457 8.3338 11.5571 8.4336H11.6571C11.7572 8.4336 11.8572 8.3338 11.8572 8.23399C11.9573 8.13418 11.9573 8.03438 11.9573 8.03438C11.8572 6.93651 11.1568 6.43748 10.2563 6.33768ZM12.6577 8.4336C12.6577 8.53341 12.6577 8.63321 12.6577 8.63321C12.7578 8.83283 13.058 8.83283 13.158 8.63321C13.158 8.53341 13.158 8.53341 13.158 8.4336C13.158 8.3338 13.158 8.23399 13.158 8.13418C13.158 8.03438 13.158 8.03438 13.158 7.93457C12.9579 6.83671 12.4576 6.03826 11.457 5.53923C10.9567 5.33962 10.4564 5.14001 9.95607 5.14001C9.75595 5.14001 9.65589 5.23981 9.65589 5.33962C9.65589 5.53923 9.75595 5.63904 9.85601 5.63904C9.95607 5.63904 10.1562 5.63904 10.2563 5.73884C10.5564 5.73884 10.8566 5.83865 11.1568 6.03826C11.5571 6.23787 11.9573 6.63709 12.2575 7.03632C12.5577 7.43554 12.6577 7.93457 12.6577 8.4336ZM13.058 11.1284C12.7578 10.9288 12.4576 10.7291 12.2575 10.5295C11.9573 10.3299 11.5571 10.3299 11.3569 10.5295C11.0567 10.7291 10.9567 11.2282 10.5564 11.2282C10.3563 11.2282 10.1562 11.1284 9.95607 11.1284C8.65528 10.6293 7.85479 9.63127 7.45455 8.3338C7.45455 8.13418 7.45455 8.03438 7.55461 7.83477C7.55461 7.73496 7.65467 7.63515 7.75473 7.63515C7.85479 7.53535 7.95485 7.53535 7.95485 7.43554C8.15498 7.23593 8.15498 6.7369 7.95485 6.33768C7.65467 5.73884 7.25443 5.14001 6.75412 4.64098C6.554 4.44136 6.25382 4.34156 5.95363 4.44136C5.55339 4.64098 5.25321 4.84059 4.95302 5.14001C4.7529 5.53923 4.45272 6.03826 4.65284 6.43748C4.85296 6.93651 5.05308 7.43554 5.25321 7.83477C5.75351 8.83283 6.35388 9.73108 7.0543 10.6293C8.3551 12.1264 9.95608 13.0247 11.7572 13.8231C11.9573 13.9229 12.0574 13.9229 12.2575 14.0227C12.4576 14.0227 12.5577 13.9229 12.7578 13.9229C13.2581 13.6235 13.6583 13.2243 13.8585 12.6255C14.0586 12.326 13.9585 12.0266 13.6583 11.827C13.5583 11.5276 13.3582 11.328 13.058 11.1284ZM9.65589 3.84253H9.45577C9.35571 3.84253 9.15559 4.04214 9.25565 4.14195C9.25565 4.34156 9.45577 4.34156 9.65589 4.34156C9.95607 4.34156 10.1562 4.34156 10.4564 4.44136C12.1574 4.74078 13.5583 6.13807 13.8585 7.93457C13.8585 8.23399 13.9585 8.63321 13.9585 8.93263C13.9585 9.13224 14.0586 9.23205 14.2587 9.23205C14.4588 9.23205 14.5589 9.03244 14.5589 8.93263C14.5589 8.53341 14.4588 8.13418 14.4588 7.73496C13.8585 5.43942 11.9573 3.94233 9.65589 3.84253ZM18.8615 12.7253C18.3612 14.6216 16.2599 16.6177 14.3588 17.0169C12.8578 17.3163 11.2569 17.5159 9.65589 17.5159C9.15559 17.5159 8.75534 17.5159 8.25504 17.5159L6.15375 19.7117C5.65345 20.3105 4.65284 19.9113 4.65284 19.1128V17.0169C2.85174 16.5179 0.850519 14.6216 0.450275 12.7253C-0.150092 10.1303 -0.150092 7.43554 0.450275 4.84059C0.850519 2.94428 2.9518 0.948156 4.85296 0.449127C7.95485 -0.149709 11.1568 -0.149709 14.2587 0.449127C16.1599 0.84835 18.2611 2.84447 18.7614 4.74078C19.4619 7.43554 19.4619 10.1303 18.8615 12.7253ZM17.1605 5.23981C16.8603 4.04214 15.2593 2.54505 13.9585 2.24563C11.0567 1.7466 8.15498 1.7466 5.25321 2.24563C3.95241 2.44525 2.35143 4.04214 2.05125 5.23981C1.55095 7.63515 1.55095 10.0305 2.05125 12.4258C2.25137 13.0247 2.65162 13.7233 3.25198 14.3222C3.85235 14.921 4.55278 15.3202 5.15314 15.5198L5.25321 15.6196V19.013C5.25321 19.2126 5.45333 19.2126 5.55339 19.1128L7.25443 17.4161C7.25443 17.4161 8.55522 16.1187 8.8554 15.8192H8.95546C10.6565 15.8192 12.2575 15.7194 13.9585 15.42C15.2593 15.1206 16.8603 13.6235 17.1605 12.4258C17.6608 10.0305 17.6608 7.63515 17.1605 5.23981ZM10.2563 6.33768C10.1562 6.33768 9.95607 6.43748 9.95607 6.53729C9.95607 6.63709 10.0561 6.83671 10.1562 6.83671C10.3563 6.83671 10.4564 6.83671 10.5564 6.93651C10.7566 7.03632 10.8566 7.03632 10.9567 7.13612C11.1568 7.23593 11.2569 7.53535 11.3569 7.73496C11.3569 7.83477 11.3569 7.93457 11.3569 8.13418C11.3569 8.23399 11.457 8.3338 11.5571 8.4336H11.6571C11.7572 8.4336 11.8572 8.3338 11.8572 8.23399C11.9573 8.13418 11.9573 8.03438 11.9573 8.03438C11.8572 6.93651 11.1568 6.43748 10.2563 6.33768ZM12.6577 8.4336C12.6577 8.53341 12.6577 8.63321 12.6577 8.63321C12.7578 8.83283 13.058 8.83283 13.158 8.63321C13.158 8.53341 13.158 8.53341 13.158 8.4336C13.158 8.3338 13.158 8.23399 13.158 8.13418C13.158 8.03438 13.158 8.03438 13.158 7.93457C12.9579 6.83671 12.4576 6.03826 11.457 5.53923C10.9567 5.33962 10.4564 5.14001 9.95607 5.14001C9.75595 5.14001 9.65589 5.23981 9.65589 5.33962C9.65589 5.53923 9.75595 5.63904 9.85601 5.63904C9.95607 5.63904 10.1562 5.63904 10.2563 5.73884C10.5564 5.73884 10.8566 5.83865 11.1568 6.03826C11.5571 6.23787 11.9573 6.63709 12.2575 7.03632C12.5577 7.43554 12.6577 7.93457 12.6577 8.4336ZM13.058 11.1284C12.7578 10.9288 12.4576 10.7291 12.2575 10.5295C11.9573 10.3299 11.5571 10.3299 11.3569 10.5295C11.0567 10.7291 10.9567 11.2282 10.5564 11.2282C10.3563 11.2282 10.1562 11.1284 9.95607 11.1284C8.65528 10.6293 7.85479 9.63127 7.45455 8.3338C7.45455 8.13418 7.45455 8.03438 7.55461 7.83477C7.55461 7.73496 7.65467 7.63515 7.75473 7.63515C7.85479 7.53535 7.95485 7.53535 7.95485 7.43554C8.15498 7.23593 8.15498 6.7369 7.95485 6.33768C7.65467 5.73884 7.25443 5.14001 6.75412 4.64098C6.554 4.44136 6.25382 4.34156 5.95363 4.44136C5.55339 4.64098 5.25321 4.84059 4.95302 5.14001C4.7529 5.53923 4.45272 6.03826 4.65284 6.43748C4.85296 6.93651 5.05308 7.43554 5.25321 7.83477C5.75351 8.83283 6.35388 9.73108 7.0543 10.6293C8.3551 12.1264 9.95608 13.0247 11.7572 13.8231C11.9573 13.9229 12.0574 13.9229 12.2575 14.0227C12.4576 14.0227 12.5577 13.9229 12.7578 13.9229C13.2581 13.6235 13.6583 13.2243 13.8585 12.6255C14.0586 12.326 13.9585 12.0266 13.6583 11.827C13.5583 11.5276 13.3582 11.328 13.058 11.1284ZM14.3588 7.73496C13.8585 5.43942 11.9573 3.94233 9.65589 3.84253H9.45577C9.35571 3.84253 9.15559 4.04214 9.25565 4.14195C9.25565 4.34156 9.45577 4.34156 9.65589 4.34156C9.95607 4.34156 10.1562 4.34156 10.4564 4.44136C12.1574 4.74078 13.5583 6.13807 13.8585 7.93457C13.8585 8.23399 13.9585 8.63321 13.9585 8.93263C13.9585 9.13224 14.0586 9.23205 14.2587 9.23205C14.4588 9.23205 14.5589 9.03244 14.5589 8.93263C14.3588 8.53341 14.3588 8.13418 14.3588 7.73496ZM13.8585 11.7272C13.5583 11.5276 13.3582 11.328 13.058 11.1284C12.7578 10.9288 12.4576 10.7291 12.2575 10.5295C11.9573 10.3299 11.5571 10.3299 11.3569 10.5295C11.0567 10.7291 10.9567 11.2282 10.5564 11.2282C10.3563 11.2282 10.1562 11.1284 9.95607 11.1284C8.65528 10.6293 7.85479 9.63127 7.45455 8.3338C7.45455 8.13418 7.45455 8.03438 7.55461 7.83477C7.55461 7.73496 7.65467 7.63515 7.75473 7.63515C7.85479 7.53535 7.95485 7.53535 7.95485 7.43554C8.15498 7.23593 8.15498 6.7369 7.95485 6.33768C7.65467 5.73884 7.25443 5.14001 6.75412 4.64098C6.554 4.44136 6.25382 4.34156 5.95363 4.44136C5.55339 4.64098 5.25321 4.84059 4.95302 5.14001C4.7529 5.53923 4.45272 6.03826 4.65284 6.43748C4.85296 6.93651 5.05308 7.43554 5.25321 7.83477C5.75351 8.83283 6.35388 9.73108 7.0543 10.6293C8.3551 12.1264 9.95608 13.0247 11.7572 13.8231C11.9573 13.9229 12.0574 13.9229 12.2575 14.0227C12.1574 14.0227 12.3575 14.0227 12.3575 14.0227C12.5577 14.0227 12.6577 13.9229 12.8578 13.9229C13.3582 13.6235 13.7584 13.2243 13.9585 12.6255C14.1586 12.2262 14.0586 12.0266 13.8585 11.7272ZM13.158 8.03438C13.158 7.93457 13.158 7.93457 13.158 7.83477C12.9579 6.83671 12.4576 6.03826 11.457 5.53923C10.9567 5.33962 10.4564 5.14001 9.95607 5.14001C9.75595 5.14001 9.65589 5.23981 9.65589 5.33962C9.65589 5.53923 9.75595 5.63904 9.85601 5.63904C9.95607 5.63904 10.1562 5.63904 10.2563 5.73884C10.5564 5.73884 10.8566 5.83865 11.1568 6.03826C11.5571 6.23787 11.9573 6.63709 12.2575 7.03632C12.4576 7.43554 12.6577 7.93457 12.6577 8.4336C12.6577 8.53341 12.6577 8.63321 12.6577 8.63321C12.7578 8.83283 13.058 8.83283 13.158 8.63321C13.158 8.53341 13.158 8.53341 13.158 8.4336C13.158 8.23399 13.158 8.13418 13.158 8.03438ZM10.2563 6.33768C10.1562 6.33768 9.95607 6.43748 9.95607 6.53729C9.95607 6.63709 10.0561 6.83671 10.1562 6.83671C10.3563 6.83671 10.4564 6.83671 10.5564 6.93651C10.7566 7.03632 10.8566 7.03632 10.9567 7.13612C11.1568 7.23593 11.2569 7.53535 11.3569 7.73496C11.3569 7.83477 11.3569 7.93457 11.3569 8.13418C11.3569 8.23399 11.457 8.3338 11.5571 8.4336H11.6571C11.7572 8.4336 11.8572 8.3338 11.8572 8.23399C11.9573 8.13418 11.9573 8.03438 11.9573 8.03438C11.8572 6.93651 11.1568 6.43748 10.2563 6.33768ZM14.3588 7.73496C13.8585 5.43942 11.9573 3.94233 9.65589 3.84253H9.45577C9.35571 3.84253 9.15559 4.04214 9.25565 4.14195C9.25565 4.34156 9.45577 4.34156 9.65589 4.34156C9.95607 4.34156 10.1562 4.34156 10.4564 4.44136C12.1574 4.74078 13.5583 6.13807 13.8585 7.93457C13.8585 8.23399 13.9585 8.63321 13.9585 8.93263C13.9585 9.13224 14.0586 9.23205 14.2587 9.23205C14.4588 9.23205 14.5589 9.03244 14.5589 8.93263C14.3588 8.53341 14.3588 8.13418 14.3588 7.73496ZM10.2563 6.33768C10.1562 6.33768 9.95607 6.43748 9.95607 6.53729C9.95607 6.63709 10.0561 6.83671 10.1562 6.83671C10.3563 6.83671 10.4564 6.83671 10.5564 6.93651C10.7566 7.03632 10.8566 7.03632 10.9567 7.13612C11.1568 7.23593 11.2569 7.53535 11.3569 7.73496C11.3569 7.83477 11.3569 7.93457 11.3569 8.13418C11.3569 8.23399 11.457 8.3338 11.5571 8.4336H11.6571C11.7572 8.4336 11.8572 8.3338 11.8572 8.23399C11.9573 8.13418 11.9573 8.03438 11.9573 8.03438C11.8572 6.93651 11.1568 6.43748 10.2563 6.33768ZM12.6577 8.4336C12.6577 8.53341 12.6577 8.63321 12.6577 8.63321C12.7578 8.83283 13.058 8.83283 13.158 8.63321C13.158 8.53341 13.158 8.53341 13.158 8.4336C13.158 8.3338 13.158 8.23399 13.158 8.13418C13.158 8.03438 13.158 8.03438 13.158 7.93457C12.9579 6.83671 12.4576 6.03826 11.457 5.53923C10.9567 5.33962 10.4564 5.14001 9.95607 5.14001C9.75595 5.14001 9.65589 5.23981 9.65589 5.33962C9.65589 5.53923 9.75595 5.63904 9.85601 5.63904C9.95607 5.63904 10.1562 5.63904 10.2563 5.73884C10.5564 5.73884 10.8566 5.83865 11.1568 6.03826C11.5571 6.23787 11.9573 6.63709 12.2575 7.03632C12.5577 7.43554 12.6577 7.93457 12.6577 8.4336ZM13.058 11.1284C12.7578 10.9288 12.4576 10.7291 12.2575 10.5295C11.9573 10.3299 11.5571 10.3299 11.3569 10.5295C11.0567 10.7291 10.9567 11.2282 10.5564 11.2282C10.3563 11.2282 10.1562 11.1284 9.95607 11.1284C8.65528 10.6293 7.85479 9.63127 7.45455 8.3338C7.45455 8.13418 7.45455 8.03438 7.55461 7.83477C7.55461 7.73496 7.65467 7.63515 7.75473 7.63515C7.85479 7.53535 7.95485 7.53535 7.95485 7.43554C8.15498 7.23593 8.15498 6.7369 7.95485 6.33768C7.65467 5.73884 7.25443 5.14001 6.75412 4.64098C6.554 4.44136 6.25382 4.34156 5.95363 4.44136C5.55339 4.64098 5.25321 4.84059 4.95302 5.14001C4.7529 5.53923 4.45272 6.03826 4.65284 6.43748C4.85296 6.93651 5.05308 7.43554 5.25321 7.83477C5.75351 8.83283 6.35388 9.73108 7.0543 10.6293C8.3551 12.1264 9.95608 13.0247 11.7572 13.8231C11.9573 13.9229 12.0574 13.9229 12.2575 14.0227C12.4576 14.0227 12.5577 13.9229 12.7578 13.9229C13.2581 13.6235 13.6583 13.2243 13.8585 12.6255C14.0586 12.326 13.9585 12.0266 13.6583 11.827C13.5583 11.5276 13.3582 11.328 13.058 11.1284ZM14.3588 7.73496C13.8585 5.43942 11.9573 3.94233 9.65589 3.84253H9.45577C9.35571 3.84253 9.15559 4.04214 9.25565 4.14195C9.25565 4.34156 9.45577 4.34156 9.65589 4.34156C9.95607 4.34156 10.1562 4.34156 10.4564 4.44136C12.1574 4.74078 13.5583 6.13807 13.8585 7.93457C13.8585 8.23399 13.9585 8.63321 13.9585 8.93263C13.9585 9.13224 14.0586 9.23205 14.2587 9.23205C14.4588 9.23205 14.5589 9.03244 14.5589 8.93263C14.3588 8.53341 14.3588 8.13418 14.3588 7.73496ZM13.8585 11.7272C13.5583 11.5276 13.3582 11.328 13.058 11.1284C12.7578 10.9288 12.4576 10.7291 12.2575 10.5295C11.9573 10.3299 11.5571 10.3299 11.3569 10.5295C11.0567 10.7291 10.9567 11.2282 10.5564 11.2282C10.3563 11.2282 10.1562 11.1284 9.95607 11.1284C8.65528 10.6293 7.85479 9.63127 7.45455 8.3338C7.45455 8.13418 7.45455 8.03438 7.55461 7.83477C7.55461 7.73496 7.65467 7.63515 7.75473 7.63515C7.85479 7.53535 7.95485 7.53535 7.95485 7.43554C8.15498 7.23593 8.15498 6.7369 7.95485 6.33768C7.65467 5.73884 7.25443 5.14001 6.75412 4.64098C6.554 4.44136 6.25382 4.34156 5.95363 4.44136C5.55339 4.64098 5.25321 4.84059 4.95302 5.14001C4.7529 5.53923 4.45272 6.03826 4.65284 6.43748C4.85296 6.93651 5.05308 7.43554 5.25321 7.83477C5.75351 8.83283 6.35388 9.73108 7.0543 10.6293C8.3551 12.1264 9.95608 13.0247 11.7572 13.8231C11.9573 13.9229 12.0574 13.9229 12.2575 14.0227C12.1574 14.0227 12.3575 14.0227 12.3575 14.0227C12.5577 14.0227 12.6577 13.9229 12.8578 13.9229C13.3582 13.6235 13.7584 13.2243 13.9585 12.6255C14.1586 12.2262 14.0586 12.0266 13.8585 11.7272ZM13.158 8.03438C13.158 7.93457 13.158 7.93457 13.158 7.83477C12.9579 6.83671 12.4576 6.03826 11.457 5.53923C10.9567 5.33962 10.4564 5.14001 9.95607 5.14001C9.75595 5.14001 9.65589 5.23981 9.65589 5.33962C9.65589 5.53923 9.75595 5.63904 9.85601 5.63904C9.95607 5.63904 10.1562 5.63904 10.2563 5.73884C10.5564 5.73884 10.8566 5.83865 11.1568 6.03826C11.5571 6.23787 11.9573 6.63709 12.2575 7.03632C12.4576 7.43554 12.6577 7.93457 12.6577 8.4336C12.6577 8.53341 12.6577 8.63321 12.6577 8.63321C12.7578 8.83283 13.058 8.83283 13.158 8.63321C13.158 8.53341 13.158 8.53341 13.158 8.4336C13.158 8.23399 13.158 8.13418 13.158 8.03438ZM10.2563 6.33768C10.1562 6.33768 9.95607 6.43748 9.95607 6.53729C9.95607 6.63709 10.0561 6.83671 10.1562 6.83671C10.3563 6.83671 10.4564 6.83671 10.5564 6.93651C10.7566 7.03632 10.8566 7.03632 10.9567 7.13612C11.1568 7.23593 11.2569 7.53535 11.3569 7.73496C11.3569 7.83477 11.3569 7.93457 11.3569 8.13418C11.3569 8.23399 11.457 8.3338 11.5571 8.4336H11.6571C11.7572 8.4336 11.8572 8.3338 11.8572 8.23399C11.9573 8.13418 11.9573 8.03438 11.9573 8.03438C11.8572 6.93651 11.1568 6.43748 10.2563 6.33768ZM14.3588 7.73496C13.8585 5.43942 11.9573 3.94233 9.65589 3.84253H9.45577C9.35571 3.84253 9.15559 4.04214 9.25565 4.14195C9.25565 4.34156 9.45577 4.34156 9.65589 4.34156C9.95607 4.34156 10.1562 4.34156 10.4564 4.44136C12.1574 4.74078 13.5583 6.13807 13.8585 7.93457C13.8585 8.23399 13.9585 8.63321 13.9585 8.93263C13.9585 9.13224 14.0586 9.23205 14.2587 9.23205C14.4588 9.23205 14.5589 9.03244 14.5589 8.93263C14.3588 8.53341 14.3588 8.13418 14.3588 7.73496ZM10.2563 6.33768C10.1562 6.33768 9.95607 6.43748 9.95607 6.53729C9.95607 6.63709 10.0561 6.83671 10.1562 6.83671C10.3563 6.83671 10.4564 6.83671 10.5564 6.93651C10.7566 7.03632 10.8566 7.03632 10.9567 7.13612C11.1568 7.23593 11.2569 7.53535 11.3569 7.73496C11.3569 7.83477 11.3569 7.93457 11.3569 8.13418C11.3569 8.23399 11.457 8.3338 11.5571 8.4336H11.6571C11.7572 8.4336 11.8572 8.3338 11.8572 8.23399C11.9573 8.13418 11.9573 8.03438 11.9573 8.03438C11.8572 6.93651 11.1568 6.43748 10.2563 6.33768ZM12.6577 8.4336C12.6577 8.53341 12.6577 8.63321 12.6577 8.63321C12.7578 8.83283 13.058 8.83283 13.158 8.63321C13.158 8.53341 13.158 8.53341 13.158 8.4336C13.158 8.3338 13.158 8.23399 13.158 8.13418C13.158 8.03438 13.158 8.03438 13.158 7.93457C12.9579 6.83671 12.4576 6.03826 11.457 5.53923C10.9567 5.33962 10.4564 5.14001 9.95607 5.14001C9.75595 5.14001 9.65589 5.23981 9.65589 5.33962C9.65589 5.53923 9.75595 5.63904 9.85601 5.63904C9.95607 5.63904 10.1562 5.63904 10.2563 5.73884C10.5564 5.73884 10.8566 5.83865 11.1568 6.03826C11.5571 6.23787 11.9573 6.63709 12.2575 7.03632C12.5577 7.43554 12.6577 7.93457 12.6577 8.4336ZM13.058 11.1284C12.7578 10.9288 12.4576 10.7291 12.2575 10.5295C11.9573 10.3299 11.5571 10.3299 11.3569 10.5295C11.0567 10.7291 10.9567 11.2282 10.5564 11.2282C10.3563 11.2282 10.1562 11.1284 9.95607 11.1284C8.65528 10.6293 7.85479 9.63127 7.45455 8.3338C7.45455 8.13418 7.45455 8.03438 7.55461 7.83477C7.55461 7.73496 7.65467 7.63515 7.75473 7.63515C7.85479 7.53535 7.95485 7.53535 7.95485 7.43554C8.15498 7.23593 8.15498 6.7369 7.95485 6.33768C7.65467 5.73884 7.25443 5.14001 6.75412 4.64098C6.554 4.44136 6.25382 4.34156 5.95363 4.44136C5.55339 4.64098 5.25321 4.84059 4.95302 5.14001C4.7529 5.53923 4.45272 6.03826 4.65284 6.43748C4.85296 6.93651 5.05308 7.43554 5.25321 7.83477C5.75351 8.83283 6.35388 9.73108 7.0543 10.6293C8.3551 12.1264 9.95608 13.0247 11.7572 13.8231C11.9573 13.9229 12.0574 13.9229 12.2575 14.0227C12.4576 14.0227 12.5577 13.9229 12.7578 13.9229C13.2581 13.6235 13.6583 13.2243 13.8585 12.6255C14.0586 12.326 13.9585 12.0266 13.6583 11.827C13.5583 11.5276 13.3582 11.328 13.058 11.1284ZM14.3588 7.73496C13.8585 5.43942 11.9573 3.94233 9.65589 3.84253H9.45577C9.35571 3.84253 9.15559 4.04214 9.25565 4.14195C9.25565 4.34156 9.45577 4.34156 9.65589 4.34156C9.95607 4.34156 10.1562 4.34156 10.4564 4.44136C12.1574 4.74078 13.5583 6.13807 13.8585 7.93457C13.8585 8.23399 13.9585 8.63321 13.9585 8.93263C13.9585 9.13224 14.0586 9.23205 14.2587 9.23205C14.4588 9.23205 14.5589 9.03244 14.5589 8.93263C14.3588 8.53341 14.3588 8.13418 14.3588 7.73496ZM13.8585 11.7272C13.5583 11.5276 13.3582 11.328 13.058 11.1284C12.7578 10.9288 12.4576 10.7291 12.2575 10.5295C11.9573 10.3299 11.5571 10.3299 11.3569 10.5295C11.0567 10.7291 10.9567 11.2282 10.5564 11.2282C10.3563 11.2282 10.1562 11.1284 9.95607 11.1284C8.65528 10.6293 7.85479 9.63127 7.45455 8.3338C7.45455 8.13418 7.45455 8.03438 7.55461 7.83477C7.55461 7.73496 7.65467 7.63515 7.75473 7.63515C7.85479 7.53535 7.95485 7.53535 7.95485 7.43554C8.15498 7.23593 8.15498 6.7369 7.95485 6.33768C7.65467 5.73884 7.25443 5.14001 6.75412 4.64098C6.554 4.44136 6.25382 4.34156 5.95363 4.44136C5.55339 4.64098 5.25321 4.84059 4.95302 5.14001C4.7529 5.53923 4.45272 6.03826 4.65284 6.43748C4.85296 6.93651 5.05308 7.43554 5.25321 7.83477C5.75351 8.83283 6.35388 9.73108 7.0543 10.6293C8.3551 12.1264 9.95608 13.0247 11.7572 13.8231C11.9573 13.9229 12.0574 13.9229 12.2575 14.0227C12.1574 14.0227 12.3575 14.0227 12.3575 14.0227C12.5577 14.0227 12.6577 13.9229 12.8578 13.9229C13.3582 13.6235 13.7584 13.2243 13.9585 12.6255C14.1586 12.2262 14.0586 12.0266 13.8585 11.7272ZM13.158 8.03438C13.158 7.93457 13.158 7.93457 13.158 7.83477C12.9579 6.83671 12.4576 6.03826 11.457 5.53923C10.9567 5.33962 10.4564 5.14001 9.95607 5.14001C9.75595 5.14001 9.65589 5.23981 9.65589 5.33962C9.65589 5.53923 9.75595 5.63904 9.85601 5.63904C9.95607 5.63904 10.1562 5.63904 10.2563 5.73884C10.5564 5.73884 10.8566 5.83865 11.1568 6.03826C11.5571 6.23787 11.9573 6.63709 12.2575 7.03632C12.4576 7.43554 12.6577 7.93457 12.6577 8.4336C12.6577 8.53341 12.6577 8.63321 12.6577 8.63321C12.7578 8.83283 13.058 8.83283 13.158 8.63321C13.158 8.53341 13.158 8.53341 13.158 8.4336C13.158 8.23399 13.158 8.13418 13.158 8.03438ZM10.2563 6.33768C10.1562 6.33768 9.95607 6.43748 9.95607 6.53729C9.95607 6.63709 10.0561 6.83671 10.1562 6.83671C10.3563 6.83671 10.4564 6.83671 10.5564 6.93651C10.7566 7.03632 10.8566 7.03632 10.9567 7.13612C11.1568 7.23593 11.2569 7.53535 11.3569 7.73496C11.3569 7.83477 11.3569 7.93457 11.3569 8.13418C11.3569 8.23399 11.457 8.3338 11.5571 8.4336H11.6571C11.7572 8.4336 11.8572 8.3338 11.8572 8.23399C11.9573 8.13418 11.9573 8.03438 11.9573 8.03438C11.8572 6.93651 11.1568 6.43748 10.2563 6.33768ZM14.3588 7.73496C13.8585 5.43942 11.9573 3.94233 9.65589 3.84253H9.45577C9.35571 3.84253 9.15559 4.04214 9.25565 4.14195C9.25565 4.34156 9.45577 4.34156 9.65589 4.34156C9.95607 4.34156 10.1562 4.34156 10.4564 4.44136C12.1574 4.74078 13.5583 6.13807 13.8585 7.93457C13.8585 8.23399 13.9585 8.63321 13.9585 8.93263C13.9585 9.13224 14.0586 9.23205 14.2587 9.23205C14.4588 9.23205 14.5589 9.03244 14.5589 8.93263C14.3588 8.53341 14.3588 8.13418 14.3588 7.73496ZM12.3575 14.0227C12.3575 14.0227 12.4576 14.0227 12.3575 14.0227C12.4576 13.9229 12.2575 13.9229 12.3575 14.0227Z" fill="#8111AE"/>
</svg>
