<svg width="20" height="20" viewBox="0 0 20 20" fill="none" xmlns="http://www.w3.org/2000/svg">
<path d="M17.1748 2.52142C15.3511 0.840473 13.0826 0 10.3735 0C7.52567 0 5.09809 0.954712 3.09483 2.86822C1.09156 4.78172 0.0878906 7.16034 0.0878906 10.0082C0.0878906 12.7377 1.0426 15.0836 2.94795 17.0502C4.86145 19.0167 7.43184 20 10.6673 20C12.6175 20 14.531 19.6002 16.4078 18.7964C17.0198 18.5353 17.3176 17.8335 17.0687 17.2175C16.8117 16.581 16.0854 16.2872 15.4531 16.5565C13.8211 17.2583 12.2217 17.6091 10.6632 17.6091C8.18255 17.6091 6.26088 16.8543 4.89817 15.3407C3.53954 13.8311 2.85819 12.0563 2.85819 10.0204C2.85819 7.80906 3.5885 5.96491 5.04505 4.48388C6.49752 3.00694 8.28863 2.26438 10.4102 2.26438C12.3645 2.26438 14.0169 2.8723 15.3633 4.08813C16.7097 5.30396 17.3829 6.83395 17.3829 8.67809C17.3829 9.9388 17.0728 10.9914 16.4567 11.8278C15.8407 12.6683 15.2001 13.0845 14.5351 13.0845C14.176 13.0845 13.9965 12.8927 13.9965 12.5051C13.9965 12.1909 14.021 11.8237 14.0659 11.3994L14.8247 5.1938H12.2136L12.0463 5.80171C11.3812 5.25908 10.6509 4.98572 9.85942 4.98572C8.60279 4.98572 7.52567 5.48756 6.63216 6.48715C5.73457 7.48674 5.28985 8.77601 5.28985 10.3509C5.28985 11.889 5.68561 13.1334 6.4812 14.0759C7.2768 15.0224 8.23151 15.4916 9.34942 15.4916C10.349 15.4916 11.2017 15.0714 11.9116 14.235C12.4461 15.0388 13.2336 15.4386 14.2739 15.4386C15.8039 15.4386 17.1258 14.7736 18.2397 13.4394C19.3535 12.1093 19.9125 10.5018 19.9125 8.62097C19.9125 6.23827 19.0026 4.20237 17.1748 2.52142ZM11.1609 11.9094C10.6999 12.5296 10.1491 12.8437 9.50854 12.8437C9.07198 12.8437 8.7211 12.6153 8.45591 12.1583C8.18663 11.7013 8.05199 11.1342 8.05199 10.4529C8.05199 9.6124 8.23967 8.93513 8.61503 8.42105C8.99038 7.90698 9.4555 7.64586 10.0104 7.64586C10.4918 7.64586 10.9202 7.83762 11.2956 8.22521C11.6709 8.61281 11.8586 9.12689 11.8586 9.77152C11.8545 10.5753 11.622 11.2852 11.1609 11.9094Z" fill="#8111AE"/>
</svg>
