<svg width="14" height="14" viewBox="0 0 14 14" fill="none" xmlns="http://www.w3.org/2000/svg">
<path d="M13.589 1.01096H11.7918C11.7973 0.810959 11.8027 0.610959 11.8027 0.410959C11.8027 0.183562 11.6192 0 11.3918 0H2.60548C2.37808 0 2.19452 0.183562 2.19452 0.410959C2.19452 0.610959 2.19726 0.810959 2.20548 1.01096H0.410959C0.183562 1.01096 0 1.19452 0 1.42192C0 3.26027 0.479452 4.99452 1.35342 6.30411C2.21644 7.6 3.36438 8.34247 4.60548 8.41644C4.88767 8.72329 5.18356 8.9726 5.49315 9.16164V10.9836H4.80548C3.9726 10.9836 3.29589 11.6603 3.29589 12.4932V13.589C3.29589 13.8164 3.47945 14 3.70685 14H10.2959C10.5233 14 10.7068 13.8164 10.7068 13.589V12.4904C10.7068 11.6575 10.0301 10.9808 9.19726 10.9808H8.50959V9.1589C8.81918 8.96986 9.11781 8.71781 9.39726 8.4137C10.6384 8.34247 11.7863 7.59726 12.6493 6.30137C13.5205 4.99178 14 3.25753 14 1.42192C14 1.19452 13.8164 1.01096 13.589 1.01096ZM2.03562 5.84932C1.31507 4.76712 0.893151 3.35342 0.830137 1.83014H2.25479C2.40274 3.70137 2.8411 5.43288 3.52877 6.80548C3.63836 7.02466 3.75342 7.23014 3.87123 7.42466C3.1863 7.16986 2.55616 6.63014 2.03562 5.84932ZM11.9644 5.84932C11.4438 6.63014 10.8137 7.16986 10.1315 7.4274C10.2493 7.23288 10.3644 7.0274 10.474 6.80822C11.1616 5.43562 11.6 3.70411 11.7479 1.83288H13.1726C13.1068 3.35342 12.6849 4.76712 11.9644 5.84932Z" fill="white"/>
</svg>
