<svg width="27" height="16" viewBox="0 0 27 16" fill="none" xmlns="http://www.w3.org/2000/svg">
<path d="M26.3438 15.6163H22.4388C21.4626 15.7261 20.5948 15.2871 19.944 14.6288C19.4016 14.0801 18.9677 13.5314 18.4254 12.8731C18.2084 12.6536 17.9915 12.4341 17.6661 12.2147C17.1237 11.8855 16.6898 11.9952 16.3644 12.5439C16.039 13.0925 16.039 13.7509 15.9305 14.4093C15.9305 15.2871 15.6051 15.6163 14.6289 15.6163C12.6764 15.7261 10.8324 15.3969 9.09685 14.4093C7.57825 13.5314 6.38507 12.2147 5.30036 10.8979C3.34787 8.15465 1.7208 5.08219 0.419147 2.00973C0.0937331 1.35135 0.310649 0.912423 1.06995 0.912423C2.3716 0.912423 3.56479 0.912423 4.86645 0.912423C5.4088 0.912423 5.73422 1.24161 5.95116 1.68054C6.60199 3.43623 7.46978 4.97246 8.5545 6.50869C8.77144 6.83788 9.09685 7.2768 9.53073 7.60599C9.96462 7.93518 10.29 7.82545 10.507 7.2768C10.6154 6.94761 10.7239 6.61842 10.7239 6.28922C10.8324 5.08219 10.8324 3.87515 10.6154 2.77784C10.507 2.00973 10.0731 1.57081 9.31378 1.46108C8.98836 1.35135 8.98836 1.24161 9.2053 1.02215C9.53071 0.692961 9.85613 0.36377 10.3985 0.36377H14.7373C15.3882 0.4735 15.6051 0.802692 15.7136 1.46108V6.39896C15.7136 6.61842 15.8221 7.49626 16.3644 7.71572C16.6898 7.82545 17.0153 7.49626 17.2322 7.2768C18.3169 6.17949 19.0762 4.753 19.727 3.43623C20.0524 2.77784 20.2694 2.22919 20.4863 1.57081C20.7033 1.13188 21.0287 0.912423 21.4626 0.912423H25.693C25.8014 0.912423 25.9099 0.912423 26.0184 0.912423C26.7777 1.02215 26.8861 1.35135 26.6692 2.00973C26.3438 3.10704 25.6929 3.98488 24.9336 4.97246C24.1743 5.96003 23.415 6.94761 22.7642 7.93518C22.2219 8.81303 22.2219 9.36168 22.9812 10.1298C23.8489 11.0076 24.8252 11.7758 25.5845 12.7633C25.9099 13.2023 26.2353 13.6412 26.5607 14.1898C27.32 14.7385 26.9946 15.6163 26.3438 15.6163Z" fill="black" fill-opacity="0.3"/>
</svg>
