<svg width="22" height="22" viewBox="0 0 22 22" fill="none" xmlns="http://www.w3.org/2000/svg">
<path d="M15.0019 0.818115H6.89693C3.55365 0.818115 0.818237 3.56721 0.818237 6.9272V15.0727C0.818237 18.4327 3.45234 21.1817 6.89693 21.1817H15.1032C18.4465 21.1817 21.1819 18.5345 21.1819 15.0727V6.9272C21.0806 3.56721 18.4465 0.818115 15.0019 0.818115ZM19.0543 15.0727C19.0543 17.3127 17.2307 19.1454 15.0019 19.1454H6.89693C4.66808 19.1454 2.84447 17.3127 2.84447 15.0727V6.9272C2.84447 4.68721 4.66808 2.85448 6.89693 2.85448H15.1032C17.332 2.85448 19.1556 4.68721 19.1556 6.9272V15.0727H19.0543ZM10.9494 5.70539C8.01136 5.70539 5.7825 8.0472 5.7825 10.9999C5.7825 13.8508 8.11267 16.1927 10.9494 16.1927C13.8874 16.1927 16.1163 13.8508 16.1163 10.9999C16.1163 8.0472 13.8874 5.70539 10.9494 5.70539ZM10.9494 14.2581C9.12579 14.2581 7.80873 12.8327 7.80873 10.9999C7.80873 9.1672 9.2271 7.84357 10.9494 7.84357C12.6717 7.84357 14.0901 9.26902 14.0901 10.9999C14.0901 12.8327 12.773 14.2581 10.9494 14.2581ZM16.2176 4.58539C16.9268 4.58539 17.4333 5.1963 17.4333 5.80721C17.4333 6.51993 16.8255 7.02902 16.2176 7.02902C15.5084 7.02902 15.0019 6.41812 15.0019 5.80721C14.9005 5.09448 15.5084 4.58539 16.2176 4.58539Z" fill="black" fill-opacity="0.3"/>
</svg>
