<svg width="14" height="11" viewBox="0 0 14 11" fill="none" xmlns="http://www.w3.org/2000/svg">
<path d="M13.5004 9.96237H0.488751C0.217223 9.96237 0 10.1905 0 10.462C0 10.7335 0.228084 10.9616 0.488751 10.9616H13.5112C13.7828 10.9616 14 10.7335 14 10.462C14 10.1905 13.7719 9.96237 13.5004 9.96237ZM12.2188 0.154771C12.0124 -0.0515904 11.6649 -0.0515904 11.4585 0.154771L5.01784 6.60628L2.54151 4.12994C2.33514 3.92358 1.98759 3.92358 1.78123 4.12994C1.57486 4.3363 1.57486 4.68386 1.78123 4.89022L4.6377 7.7467C4.84407 7.95306 5.19162 7.95306 5.39798 7.7467L12.2188 0.925911C12.4251 0.708688 12.4251 0.371994 12.2188 0.154771Z" fill="#8111AE"/>
</svg>
